<svg width="137" height="26" viewBox="0 0 137 26" fill="none" xmlns="http://www.w3.org/2000/svg">
<g clip-path="url(#clip0_806848_1048)">
<path d="M0 24.3802L10.2168 1.59988H13.4067L23.6528 24.3802H20.2723L11.1503 3.42214H12.4397L3.31977 24.3802H0ZM4.3517 18.6872L5.22036 16.0849H17.9196L18.8532 18.6872H4.3517Z" fill="white"/>
<path d="M36.8691 24.6444C35.2292 24.6626 33.6005 24.37 32.0674 23.7819C30.6603 23.2416 29.3756 22.4202 28.2901 21.3668C27.2047 20.3135 26.3408 19.0498 25.7502 17.6514C25.1376 16.1798 24.8306 14.5969 24.848 13.0006C24.8302 11.4043 25.1373 9.82134 25.7502 8.34983C26.338 6.95815 27.1989 5.70113 28.2808 4.65458C29.3795 3.58909 30.6774 2.75545 32.0988 2.20236C35.2433 1.04727 38.6909 1.05251 41.832 2.21716C43.2787 2.77973 44.5707 3.68444 45.5997 4.85541L43.6007 6.87216C42.7423 6.00342 41.7164 5.32203 40.5866 4.87021C39.4593 4.43955 38.2626 4.22449 37.0575 4.23601C35.8305 4.22492 34.6122 4.44575 33.4656 4.88712C32.3986 5.2958 31.423 5.9153 30.5959 6.70938C29.7877 7.49592 29.1511 8.44419 28.7267 9.4935C28.2801 10.6043 28.056 11.7934 28.0673 12.9921C28.0582 14.1804 28.2823 15.3588 28.7267 16.4591C29.1534 17.5115 29.7896 18.4641 30.5959 19.258C31.4149 20.0584 32.3852 20.6839 33.4489 21.0972C34.5901 21.5394 35.8037 21.7603 37.0261 21.7483C38.2041 21.7524 39.3746 21.5595 40.4903 21.1775C41.6395 20.7729 42.6895 20.1242 43.5693 19.2749L45.405 21.7504C44.253 22.7243 42.9222 23.4591 41.4887 23.913C39.9965 24.4008 38.4375 24.6476 36.8691 24.6444ZM42.3113 21.3234V12.8674H45.405V21.7462L42.3113 21.3234Z" fill="white"/>
<path d="M51.5652 24.3802V1.59988H60.3565C62.3325 1.59988 64.0196 1.91416 65.4178 2.54272C66.7448 3.1052 67.8733 4.05847 68.6559 5.27822C69.4081 6.47051 69.7842 7.89181 69.7842 9.54213C69.7842 11.1924 69.4081 12.6081 68.6559 13.7891C67.8736 14.9986 66.7521 15.9451 65.4345 16.5077C64.0391 17.1349 62.352 17.4491 60.3733 17.4506H53.3381L54.7887 15.9538V24.3802H51.5652ZM54.7887 16.2752L53.3381 14.6791H60.2665C62.3304 14.6791 63.8933 14.2288 64.9552 13.3283C66.0172 12.4277 66.553 11.1657 66.5628 9.54213C66.5628 7.91436 66.0304 6.65583 64.9657 5.76655C63.901 4.87727 62.3381 4.43192 60.277 4.43051H53.3486L54.7992 2.80486L54.7887 16.2752ZM66.6486 24.3802L60.9112 16.1166H64.3608L70.1609 24.3802H66.6486Z" fill="white"/>
<path d="M110.31 24.3802L102.775 1.59988H106.094L113.031 22.6256H111.357L118.532 1.59988H121.498L128.521 22.6256H126.911L133.938 1.59988H137L129.458 24.3802H126.074L119.499 4.88713H120.37L113.764 24.3802H110.31Z" fill="white"/>
<path fill-rule="evenodd" clip-rule="evenodd" d="M88.8802 19.0065C83.327 19.499 89.2779 13.2987 89.4453 13.1211C87.7708 14.8419 83.4107 14.9518 82.7074 16.9263C83.2851 17.997 84.2436 18.8065 85.3892 19.1914C86.5349 19.5763 87.7825 19.508 88.8802 19.0001V19.0065Z" fill="#004790"/>
<path fill-rule="evenodd" clip-rule="evenodd" d="M82.5148 16.5331C81.9517 13.5503 86.8937 6.43246 86.8937 6.43246C86.8937 6.43246 82.1276 11.9732 82.1276 14.6326C82.1269 15.2862 82.2587 15.9329 82.5148 16.5331Z" fill="#21AD7E"/>
<path d="M77.9684 9.27998C79.3383 9.27998 80.4488 8.15842 80.4488 6.77491C80.4488 5.3914 79.3383 4.26984 77.9684 4.26984C76.5985 4.26984 75.488 5.3914 75.488 6.77491C75.488 8.15842 76.5985 9.27998 77.9684 9.27998Z" fill="#1EC2A3"/>
<path d="M98.4103 9.22503C98.9413 10.9277 99.1049 12.7256 98.8902 14.4975C98.6755 16.2694 98.0874 17.9743 97.1655 19.4975C96.2437 21.0206 95.0094 22.3266 93.5459 23.3276C92.0823 24.3286 90.4234 25.0013 88.6808 25.3004C86.9383 25.5996 85.1524 25.5183 83.4436 25.0619C81.7348 24.6056 80.1425 23.7848 78.7741 22.6548C77.4057 21.5249 76.2929 20.112 75.5105 18.5112C74.7281 16.9105 74.2944 15.159 74.2384 13.3748C74.2332 13.2063 74.2609 13.0384 74.3199 12.8807C74.3789 12.723 74.4681 12.5786 74.5824 12.4557C74.8132 12.2075 75.1322 12.0621 75.4692 12.0514C75.8062 12.0408 76.1335 12.1658 76.3793 12.3989C76.625 12.632 76.769 12.9541 76.7795 13.2945C76.8412 15.3757 77.5488 17.3847 78.8022 19.0379C80.0557 20.691 81.7917 21.9046 83.765 22.5074C85.7384 23.1102 87.8494 23.0716 89.7999 22.3971C91.7504 21.7226 93.4418 20.4463 94.6352 18.7484C95.8286 17.0505 96.4636 15.0169 96.4507 12.9348C96.4378 10.8527 95.7775 8.8273 94.5631 7.14468C93.3488 5.46206 91.6417 4.20727 89.683 3.55752C87.7243 2.90777 85.6129 2.89591 83.6472 3.52361C83.3297 3.61173 82.9907 3.57189 82.7016 3.41249C82.4126 3.25309 82.1962 2.98658 82.0979 2.66914C81.9996 2.35171 82.0273 2.00814 82.1749 1.71087C82.3226 1.4136 82.5788 1.18585 82.8895 1.07562C86.0177 0.082635 89.4082 0.382871 92.3177 1.91051C95.2271 3.43814 97.4181 6.06853 98.4103 9.22503Z" fill="url(#paint0_linear_806848_1048)"/>
<path fill-rule="evenodd" clip-rule="evenodd" d="M89.2757 9.5358C88.5384 8.45819 87.7432 7.42219 86.8937 6.43246C86.8937 6.43246 82.1297 11.9732 82.1297 14.6326C82.128 15.2867 82.2591 15.9342 82.5148 16.5352C82.8455 15.9264 83.4651 15.5226 84.0679 15.2245C84.8001 14.892 85.5507 14.6027 86.316 14.3578C87.3291 14.0048 88.945 13.4615 89.5144 12.4764C90.0439 11.5589 89.4955 9.86135 89.2757 9.53791V9.5358Z" fill="#1EC2A3"/>
<path fill-rule="evenodd" clip-rule="evenodd" d="M89.9037 10.4744C91.394 15.0047 83.664 14.2373 82.7074 16.9326C83.2143 17.8713 84.0163 18.6128 84.9867 19.0401C85.9572 19.4675 87.0409 19.5563 88.0669 19.2927C89.0929 19.029 90.0028 18.4279 90.653 17.5841C91.3032 16.7403 91.6567 15.7018 91.6578 14.6326C91.6578 13.5397 90.8519 11.9584 89.9037 10.4744Z" fill="#0FBCCB"/>
</g>
<defs>
<linearGradient id="paint0_linear_806848_1048" x1="74.2384" y1="12.9922" x2="98.9859" y2="12.9922" gradientUnits="userSpaceOnUse">
<stop stop-color="#1EC2A3"/>
<stop offset="0.48" stop-color="#16BFB8"/>
<stop offset="1" stop-color="#0FBCCB"/>
</linearGradient>
<clipPath id="clip0_806848_1048">
<rect width="137" height="25" fill="white" transform="translate(0 0.5)"/>
</clipPath>
</defs>
</svg>
