<svg width="188" height="34" viewBox="0 0 188 34" fill="none" xmlns="http://www.w3.org/2000/svg">
<g clip-path="url(#clip0_806848_1011)">
<path d="M43.9744 5.48651L19.8279 29.633L22.8126 32.6176L46.9591 8.47115L43.9744 5.48651Z" fill="#F8B500"/>
<path d="M9.33627 1.46674L0.5 10.303L17.7267 27.5297L26.563 18.6934L9.33627 1.46674Z" fill="#F8B500"/>
<path d="M29.0992 1.15527L21.456 8.80063L28.9527 16.2952L36.5959 8.64987L29.0992 1.15527Z" fill="#F8B500"/>
<path d="M38.9961 0.50002L36.1167 3.37939L38.9961 6.25877L41.8754 3.37939L38.9961 0.50002Z" fill="#F8B500"/>
<path d="M68.1324 24.7902C67.8171 25.0004 67.388 25.2368 66.8451 25.4995C66.3022 25.7623 65.6673 25.9812 64.9404 26.1563C64.2136 26.3315 63.4123 26.419 62.5366 26.419C61.0829 26.4015 59.7649 26.1388 58.5827 25.6309C57.4005 25.123 56.3934 24.4312 55.5615 23.5554C54.7295 22.6797 54.0946 21.6683 53.6568 20.5211C53.2189 19.3739 53 18.1523 53 16.8518C53 15.4332 53.2277 14.124 53.6831 12.9242C54.1384 11.7245 54.7908 10.6824 55.6403 9.79792C56.4897 8.91344 57.4881 8.22601 58.6352 7.7356C59.7824 7.2452 61.0391 7 62.4052 7C63.5436 7 64.577 7.15325 65.5052 7.45975C66.4335 7.76625 67.2304 8.12092 67.896 8.52375L66.8714 10.9407C66.3459 10.5729 65.7067 10.2314 64.9536 9.91614C64.2004 9.60088 63.3773 9.44325 62.484 9.44325C61.5558 9.44325 60.68 9.62715 59.8569 9.99496C59.0337 10.3628 58.3068 10.8794 57.6763 11.545C57.0458 12.2105 56.551 12.9812 56.192 13.8569C55.8329 14.7326 55.6534 15.6871 55.6534 16.7205C55.6534 17.7363 55.8154 18.6865 56.1394 19.5709C56.4635 20.4554 56.9276 21.226 57.5318 21.8828C58.1361 22.5396 58.8673 23.0519 59.7255 23.4197C60.5837 23.7875 61.547 23.9714 62.6154 23.9714C63.5787 23.9714 64.4369 23.8225 65.19 23.5248C65.9431 23.2271 66.5649 22.8943 67.0553 22.5265L68.1324 24.7902Z" fill="white"/>
<path d="M70.8165 7.2058H73.3648V26.2089H70.8165V7.2058Z" fill="white"/>
<path d="M75.3615 26.2089L81.96 15.8535L83.1947 18.3493L78.514 26.2089H75.3615ZM75.6242 7.2058H78.8556L91.2338 26.2089H87.9499L75.6242 7.2058ZM83.2998 14.9603L87.9017 7.2058H90.9755L84.6397 17.1145L83.2998 14.9603Z" fill="white"/>
<path d="M109.742 10.5948C109.094 10.262 108.385 9.97306 107.614 9.72786C106.844 9.48266 106.09 9.36006 105.355 9.36006C104.339 9.36006 103.529 9.59651 102.925 10.0694C102.32 10.5423 102.018 11.1728 102.018 11.9609C102.018 12.5564 102.215 13.06 102.609 13.4716C103.004 13.8831 103.511 14.2378 104.133 14.5356C104.755 14.8333 105.416 15.1135 106.117 15.3762C106.695 15.5864 107.273 15.836 107.851 16.125C108.429 16.414 108.95 16.7686 109.414 17.189C109.878 17.6093 110.246 18.126 110.517 18.739C110.789 19.352 110.924 20.1051 110.924 20.9984C110.924 22.0142 110.675 22.9337 110.176 23.7569C109.676 24.58 108.963 25.2281 108.035 25.701C107.106 26.1738 105.994 26.4103 104.698 26.4103C103.875 26.4103 103.082 26.3183 102.32 26.1344C101.559 25.9505 100.854 25.701 100.206 25.3857C99.5576 25.0704 98.9796 24.7464 98.4717 24.4137L99.6013 22.417C100.022 22.7148 100.503 22.9994 101.046 23.2708C101.589 23.5423 102.158 23.7569 102.754 23.9145C103.349 24.0721 103.927 24.1509 104.488 24.1509C105.101 24.1509 105.696 24.0458 106.274 23.8357C106.852 23.6255 107.334 23.2927 107.719 22.8374C108.105 22.382 108.297 21.7777 108.297 21.0246C108.297 20.3941 108.126 19.8599 107.785 19.4221C107.443 18.9842 106.997 18.612 106.445 18.3055C105.893 17.999 105.294 17.7232 104.645 17.478C104.032 17.2678 103.424 17.0226 102.82 16.7424C102.215 16.4621 101.655 16.125 101.138 15.7309C100.622 15.3368 100.201 14.8508 99.8772 14.2728C99.5532 13.6949 99.3912 12.9943 99.3912 12.1711C99.3912 11.1728 99.632 10.3015 100.114 9.5571C100.595 8.81274 101.256 8.22601 102.097 7.7969C102.938 7.3678 103.901 7.13574 104.987 7.10071C106.213 7.10071 107.295 7.24958 108.232 7.54732C109.169 7.84507 109.996 8.20411 110.714 8.62446L109.742 10.5948Z" fill="white"/>
<path d="M112.107 7.2058H124.748V9.64905H119.647V26.2089H117.098V9.64905H112.102V7.2058H112.107Z" fill="white"/>
<path d="M129.455 19.479C129.455 20.3372 129.66 21.1034 130.072 21.7777C130.484 22.452 131.035 22.9819 131.727 23.3672C132.419 23.7525 133.185 23.9451 134.026 23.9451C134.919 23.9451 135.716 23.7525 136.417 23.3672C137.117 22.9819 137.664 22.452 138.059 21.7777C138.453 21.1034 138.65 20.3372 138.65 19.479V7.2058H141.172V19.5578C141.172 20.9414 140.856 22.1499 140.226 23.1833C139.595 24.2166 138.737 25.0135 137.651 25.574C136.565 26.1344 135.357 26.4147 134.026 26.4147C132.712 26.4147 131.513 26.1344 130.427 25.574C129.341 25.0135 128.483 24.2166 127.852 23.1833C127.222 22.1499 126.906 20.9414 126.906 19.5578V7.2058H129.455V19.479Z" fill="white"/>
<path d="M144.78 26.2089V7.2058H149.959C151.851 7.2058 153.454 7.4904 154.772 8.05962C156.085 8.62884 157.149 9.39071 157.964 10.3452C158.778 11.2998 159.369 12.3463 159.737 13.4847C160.105 14.6231 160.289 15.7703 160.289 16.9263C160.289 18.3624 160.039 19.6497 159.54 20.7882C159.041 21.9266 158.358 22.8987 157.491 23.7043C156.624 24.51 155.625 25.1274 154.496 25.5565C153.366 25.9856 152.171 26.2001 150.91 26.2001H144.78V26.2089ZM147.328 23.7656H150.402C151.435 23.7656 152.394 23.608 153.278 23.2927C154.163 22.9775 154.934 22.5221 155.59 21.9266C156.247 21.3311 156.759 20.5999 157.127 19.7329C157.495 18.866 157.679 17.872 157.679 16.7511C157.679 15.5952 157.486 14.575 157.101 13.6905C156.716 12.806 156.19 12.066 155.525 11.4705C154.859 10.8751 154.106 10.4241 153.265 10.1176C152.425 9.81105 151.549 9.6578 150.638 9.6578H147.328V23.7656Z" fill="white"/>
<path d="M162.916 7.2058H165.464V26.2089H162.916V7.2058Z" fill="white"/>
<path d="M168.144 16.7205C168.144 15.4069 168.393 14.1634 168.893 12.9899C169.392 11.8165 170.088 10.7787 170.981 9.87675C171.874 8.97476 172.903 8.26981 174.068 7.76189C175.233 7.25397 176.489 7.00002 177.838 7.00002C179.152 7.00002 180.395 7.25397 181.569 7.76189C182.742 8.26981 183.78 8.97476 184.682 9.87675C185.584 10.7787 186.289 11.8165 186.797 12.9899C187.305 14.1634 187.558 15.4157 187.558 16.7468C187.558 18.0778 187.305 19.3301 186.797 20.5036C186.289 21.677 185.588 22.706 184.695 23.5905C183.802 24.475 182.768 25.1668 181.595 25.6659C180.421 26.1651 179.169 26.4147 177.838 26.4147C176.489 26.4147 175.233 26.1695 174.068 25.6791C172.903 25.1887 171.874 24.5012 170.981 23.6168C170.088 22.7323 169.392 21.7077 168.893 20.543C168.393 19.3783 168.144 18.1041 168.144 16.7205ZM170.775 16.7205C170.775 17.7363 170.955 18.6777 171.314 19.5447C171.673 20.4116 172.181 21.1779 172.838 21.8434C173.494 22.509 174.248 23.03 175.097 23.4066C175.946 23.7831 176.87 23.9714 177.869 23.9714C178.867 23.9714 179.791 23.7831 180.64 23.4066C181.49 23.03 182.234 22.5134 182.873 21.8566C183.513 21.1998 184.016 20.4335 184.384 19.5578C184.752 18.6821 184.936 17.7451 184.936 16.7468C184.936 15.7309 184.752 14.7851 184.384 13.9094C184.016 13.0337 183.513 12.2587 182.873 11.5844C182.234 10.9101 181.481 10.3847 180.614 10.0081C179.747 9.63155 178.823 9.44327 177.842 9.44327C176.844 9.44327 175.911 9.63593 175.044 10.0212C174.177 10.4066 173.424 10.932 172.785 11.5975C172.146 12.2631 171.651 13.0381 171.301 13.9226C170.95 14.807 170.775 15.7397 170.775 16.7205Z" fill="white"/>
</g>
<defs>
<clipPath id="clip0_806848_1011">
<rect width="188" height="33" fill="white" transform="translate(0 0.5)"/>
</clipPath>
</defs>
</svg>
