<svg width="239" height="36" viewBox="0 0 239 36" fill="none" xmlns="http://www.w3.org/2000/svg">
<g clip-path="url(#clip0_806848_1027)">
<path d="M59.0081 16.3042C55.8328 15.4201 55.0045 14.7886 55.0045 13.6204C55.0045 12.5152 56.0399 11.6943 57.7656 11.6943C59.9054 11.6943 61.0444 12.7047 61.8037 14.1571L65.2896 12.3258C63.8745 9.64191 61.217 8 57.7656 8C54.1416 8 50.8628 10.084 50.8628 13.7151C50.8628 17.3778 54.0036 18.6092 57.2134 19.4617C60.3541 20.2827 61.7692 20.8511 61.7692 22.2719C61.7692 23.3455 60.9063 24.2927 58.3868 24.2927C55.7638 24.2927 54.2797 23.1245 53.5549 21.3563L50 23.2508C51.139 26.1241 53.9691 28.0186 58.2833 28.0186C62.7701 28.0186 65.9108 25.8083 65.9108 22.2088C65.8763 18.2935 62.3214 17.2831 59.0081 16.3042Z" fill="white"/>
<path d="M73.4004 19.6828H81.373V16.1148H73.4004V12.0416H82.1323V8.41051H69.2587V27.6397H82.2704V24.0086H73.4004V19.6828Z" fill="white"/>
<path d="M98.112 20.1249L89.0695 8.41051H85.9287V27.6397H90.0704V15.8622L99.113 27.6397H102.254V8.41051H98.112V20.1249Z" fill="white"/>
<path d="M105.325 12.0416H110.986V27.6397H115.127V12.0416H120.822V8.41051H105.325V12.0416Z" fill="white"/>
<path d="M139.183 14.7887C139.183 11.2838 136.043 8.41051 132.177 8.41051H123.756V27.6713H127.897V20.9774H131.073L135.318 27.6713H139.805L135.145 20.409C137.527 19.3671 139.183 17.1884 139.183 14.7887ZM132.177 17.6304H127.897V11.9469H132.177C133.73 11.9469 135.042 13.1783 135.042 14.7887C135.042 16.3674 133.73 17.6304 132.177 17.6304Z" fill="white"/>
<path d="M147.363 8.41051H143.221V27.6713H147.363V8.41051Z" fill="white"/>
<path d="M159.857 16.3042C156.682 15.4201 155.854 14.7886 155.854 13.6204C155.854 12.5152 156.889 11.6943 158.615 11.6943C160.754 11.6943 161.893 12.7047 162.653 14.1571L166.139 12.3258C164.724 9.64191 162.066 8 158.615 8C154.991 8 151.712 10.084 151.712 13.7151C151.712 17.3778 154.853 18.6092 158.062 19.4617C161.203 20.2827 162.618 20.8511 162.618 22.2719C162.618 23.3455 161.755 24.2927 159.236 24.2927C156.613 24.2927 155.129 23.1245 154.404 21.3563L150.849 23.2508C151.988 26.1241 154.818 28.0186 159.132 28.0186C163.619 28.0186 166.76 25.8083 166.76 22.2088C166.725 18.2935 163.17 17.2831 159.857 16.3042Z" fill="white"/>
<path d="M174.491 19.6828H182.464V16.1148H174.491V12.0416H183.188V8.41051H170.315V27.6397H183.361V24.0086H174.491V19.6828Z" fill="white"/>
<path d="M199.341 20.1249L190.333 8.41051H187.157V27.6397H191.334V15.8622L200.342 27.6397H203.517V8.41051H199.341V20.1249Z" fill="white"/>
<path d="M215.597 16.3042C212.422 15.4201 211.593 14.7886 211.593 13.6204C211.593 12.5152 212.629 11.6943 214.354 11.6943C216.494 11.6943 217.633 12.7047 218.392 14.1571L221.878 12.3258C220.463 9.64191 217.806 8 214.354 8C210.73 8 207.452 10.084 207.452 13.7151C207.452 17.3778 210.592 18.6092 213.802 19.4617C216.943 20.2827 218.358 20.8511 218.358 22.2719C218.358 23.3455 217.495 24.2927 214.976 24.2927C212.352 24.2927 210.868 23.1245 210.144 21.3563L206.589 23.2508C207.728 26.1241 210.558 28.0186 214.872 28.0186C219.359 28.0186 222.5 25.8083 222.5 22.2088C222.465 18.2935 218.945 17.2831 215.597 16.3042Z" fill="white"/>
<path d="M229.954 24.0086V19.6828H237.927V16.1148H229.954V12.0416H238.686V8.41051H225.813V27.6397H238.824V24.0086H229.954Z" fill="white"/>
<path d="M21.6234 0.0207977H17.0059L29.1523 19.3943C29.63 20.1642 30.5398 20.6429 31.5179 20.6429H35.7714L23.4431 0.978029C23.0564 0.374558 22.374 0.0207977 21.6234 0.0207977Z" fill="#0BBBEF"/>
<path d="M14.2082 24.4926L12.0928 27.8637H37.1362C37.8868 27.8637 38.5919 27.5308 38.9558 26.9273L41.2987 23.2232H16.5965C15.5957 23.244 14.7086 23.7226 14.2082 24.4926Z" fill="#41B38E"/>
<path d="M41.2987 23.244L43.6188 19.5816C43.9828 18.9781 43.9828 18.2498 43.5961 17.6463L33.1557 1.29018C32.678 0.541039 31.7682 0.0208094 30.8128 0H26.4683L41.2987 23.244Z" fill="white"/>
<path d="M19.3033 8.86476L17.1879 5.49365L4.8141 24.888C4.42742 25.4706 4.42742 26.2198 4.79135 26.8232L7.11144 30.4857L19.3033 11.3827C19.781 10.5919 19.8037 9.63471 19.3033 8.86476Z" fill="#F9B233"/>
<path d="M7.11145 30.4649L9.43155 34.1273C9.79548 34.7308 10.4779 35.1262 11.2285 35.1262H32.2003C33.1784 35.1262 34.0882 34.6475 34.5659 33.8776L36.704 30.4857L7.11145 30.4649Z" fill="white"/>
<path d="M2.49398 23.14L17.0059 0.0207977H12.3885C11.6379 0.0207977 10.9555 0.395367 10.5688 0.978029L0.378597 17.2093C-0.0990692 17.9793 -0.144559 18.9573 0.355853 19.7273L2.49398 23.14Z" fill="white"/>
</g>
<defs>
<clipPath id="clip0_806848_1027">
<rect width="239" height="36" fill="white"/>
</clipPath>
</defs>
</svg>
