<?xml version="1.0" encoding="utf-8"?>
<!-- Generator: Adobe Illustrator 28.2.0, SVG Export Plug-In . SVG Version: 6.00 Build 0)  -->
<svg version="1.1" id="PFP" xmlns="http://www.w3.org/2000/svg" xmlns:xlink="http://www.w3.org/1999/xlink" x="0px" y="0px"
	 viewBox="0 0 512 512" style="enable-background:new 0 0 512 512;" xml:space="preserve">
<style type="text/css">
	.st0 {
		fill:#EC8602;
	}
	.st1 {
		fill:#14271D;
	}
	@media (prefers-color-scheme: dark) {
    .st1 {
        fill: #C0D22D;
      }
    }
</style>
<circle id="circle21-3" class="st0" cx="238.4" cy="254.2" r="21.7"/>
<path id="path21-5" class="st1" d="M335.4,250.9c17.9-7.8,32.9-21.2,42.7-38.1c9.8-16.7,15-35.7,15-55.1c0-16.9-3.7-33.6-11-48.8
	c-7.1-15.3-18.1-28.6-31.8-38.5c-14.2-10.1-31.3-15.3-48.7-15H102v401.1h190.4c20.4,0.2,40.6-4.2,59.1-13
	c17.2-8,31.9-20.5,42.6-36.1c10.7-16,16.2-35,15.8-54.3c0.5-23.2-6.5-45.9-20-64.7C376.5,270.2,357.3,256.9,335.4,250.9L335.4,250.9
	L335.4,250.9z M349.8,377.8c-5.7,10.2-13.9,18.9-23.7,25.1c-10,6.4-21.7,9.8-33.6,9.6H152.9v-138l0,0v-40.9l0,0V99.5H284
	c10.8-0.1,21.3,3,30.2,9.1c8.9,6.1,16.1,14.4,20.9,24c5.2,10.6,7.9,22.3,7.6,34.2c0.1,11.6-2.7,23.1-8.2,33.3
	c-5.2,9.8-12.8,18.2-22,24.3c-7.6,4.9-16.3,7.8-25.3,8.6l0,0c-9.9,0-18.2,9.1-18.2,20.7c0,11.6,8,20.8,18.2,20.8h9.1
	c11.3-0.2,22.5,3.2,31.8,9.6c9.3,6.5,16.9,15.3,22,25.4c5.5,10.6,8.3,22.5,8.2,34.4C358.5,355.8,355.5,367.5,349.8,377.8
	L349.8,377.8L349.8,377.8z"/>
</svg>
