<?xml version="1.0" encoding="UTF-8"?>
<svg xmlns="http://www.w3.org/2000/svg" version="1.1" viewBox="0 0 512 512">
  <defs>
    <style>
      .cls-1 {
        fill: #ec8602;
      }

      .cls-2 {
        fill: #14271d;
      }
    </style>
  </defs>
  <!-- Generator: Adobe Illustrator 28.7.1, SVG Export Plug-In . SVG Version: 1.2.0 Build 142)  -->
  <g>
    <g id="PFP">
      <circle id="circle21-3" class="cls-1" cx="209.9" cy="253.8" r="27"/>
      <path id="path21-5" class="cls-2" d="M339.3,250.7c18.8-8.2,34.5-22.2,44.8-40,10.3-17.5,15.7-37.5,15.7-57.8,0-17.7-3.9-35.3-11.5-51.3-7.5-16.1-19-30-33.4-40.4-14.9-10.6-32.8-16.1-51.1-15.7H94.4v421.1h199.9c21.4.3,42.7-4.4,62-13.6,18-8.4,33.5-21.5,44.8-37.9,11.3-16.8,17-36.7,16.6-57,.6-24.3-6.8-48.2-21-67.9-14.1-19.2-34.3-33.1-57.3-39.5h0ZM354.4,383.8c-6,10.7-14.5,19.8-24.9,26.4-10.5,6.8-22.8,10.3-35.3,10.1h-146.5v-144.9h0v-42.9h0V91.7h137.6c11.3-.1,22.4,3.2,31.7,9.5,9.4,6.4,16.9,15.1,21.9,25.2,5.5,11.2,8.2,23.5,8,35.9.1,12.2-2.8,24.2-8.6,35-5.4,10.3-13.4,19.1-23.1,25.5-8,5.1-17.1,8.2-26.5,9h0c-10.4,0-19.1,9.5-19.1,21.8s8.4,21.8,19.1,21.8h9.5c11.9-.2,23.6,3.4,33.4,10.1,9.8,6.9,17.7,16,23.1,26.7,5.7,11.2,8.7,23.6,8.6,36.2.2,12.4-2.9,24.6-9,35.5h0Z"/>
    </g>
  </g>
</svg>