<svg width="126" height="32" viewBox="0 0 126 32" fill="none" xmlns="http://www.w3.org/2000/svg">
<g clip-path="url(#clip0_806727_596)">
<path d="M110.897 8.01198C110.919 8.03006 110.933 8.02554 110.933 7.9939C110.933 5.70686 110.933 3.41982 110.933 1.1373C110.933 0.762151 111.027 0.50452 111.439 0.50452C111.928 0.5 112.416 0.5 112.905 0.5C113.313 0.5 113.635 0.540679 113.635 1.01978C113.635 7.38372 113.635 13.7477 113.635 20.1071C113.635 20.532 113.586 20.8483 113.097 20.8483C112.779 20.8483 112.461 20.8483 112.138 20.8438C111.721 20.8393 111.408 20.8619 111.296 20.4325C111.21 20.1071 111.125 19.7771 111.049 19.4427C111.045 19.4291 111.031 19.4246 111.022 19.4336C109.633 20.6947 107.84 21.3139 105.948 21.106C104.738 20.9749 103.712 20.4958 102.865 19.6732C101.327 18.1816 100.861 16.0121 100.852 13.9465C100.843 12.2154 101.184 10.4527 102.125 8.97923C103.16 7.35208 104.895 6.47071 106.809 6.49331C108.346 6.51591 109.709 7.02214 110.897 8.01198ZM103.958 11.1985C103.559 12.5228 103.541 14.055 103.716 15.3522C103.954 17.1104 104.779 18.5613 106.648 18.8822C108.194 19.1444 109.678 18.6201 110.915 17.698C110.928 17.689 110.933 17.6754 110.933 17.6618V9.91936C110.933 9.91484 110.928 9.91032 110.928 9.9058C109.691 8.97923 108.297 8.586 106.746 8.73064C105.325 8.86623 104.362 9.86512 103.958 11.1985Z" fill="#222E3E"/>
<path d="M96.0114 19.4471C94.3933 20.8166 92.2329 21.5398 90.1398 21.0517C88.8668 20.7579 87.8404 19.8223 87.446 18.5703C87.1502 17.6211 87.1546 16.464 87.4998 15.5329C87.7194 14.9363 88.0914 14.4165 88.5755 13.9917C90.5566 12.247 93.5731 12.5905 95.8993 13.169C95.9173 13.1736 95.9262 13.169 95.9262 13.151C95.9262 12.5363 95.9262 11.9216 95.9262 11.3069C95.9262 10.5837 95.7962 9.78368 95.2584 9.29102C94.8505 8.91587 94.2454 8.75768 93.6851 8.70796C92.0447 8.56784 90.4401 8.86163 88.8892 9.34074C88.58 9.43565 88.2035 9.51249 88.1855 9.03791C88.1721 8.69892 88.1721 8.35993 88.1766 8.02094C88.1855 7.62319 88.45 7.45596 88.7861 7.31585C89.0551 7.20737 89.3285 7.11245 89.6064 7.03109C91.1214 6.60171 92.7663 6.4164 94.3216 6.53391C95.2225 6.59719 96.2041 6.83222 96.9571 7.35652C98.0777 8.13846 98.49 9.42209 98.49 10.76C98.4945 13.951 98.499 17.142 98.499 20.333C98.499 20.672 98.3287 20.8392 97.988 20.8483C97.5757 20.8573 97.1588 20.8573 96.742 20.8573C96.2893 20.8573 96.2086 20.5409 96.1459 20.1296C96.1145 19.9081 96.0786 19.6867 96.0428 19.4607C96.0338 19.4381 96.0248 19.4335 96.0114 19.4471ZM92.3584 14.6154C90.7314 14.7555 89.7946 15.6459 89.9694 17.3635C90.1174 18.8143 91.3141 19.2573 92.5825 19.1262C93.7927 18.9996 94.9491 18.4934 95.9083 17.7522C95.9173 17.7431 95.9217 17.7341 95.9217 17.7205V14.9544C95.9217 14.9499 95.9173 14.9408 95.9083 14.9408C94.7609 14.6561 93.5372 14.5114 92.3584 14.6154Z" fill="#222E3E"/>
<path d="M116.67 18.4979C117.741 18.855 118.852 19.0719 119.977 19.1262C120.672 19.1578 121.295 19.1623 121.905 18.986C122.582 18.7917 123.137 18.3307 123.299 17.6301C123.612 16.2696 122.689 15.7137 121.622 15.3069C120.739 14.9679 119.852 14.6334 118.969 14.299C117.113 13.5984 115.872 12.2334 116.042 10.1226C116.235 7.77683 118.395 6.63331 120.484 6.5158C121.954 6.42992 123.348 6.66043 124.67 7.19829C125.047 7.35197 125.096 7.66836 125.101 8.07062C125.105 8.31921 125.101 8.56781 125.092 8.81188C125.078 9.33618 124.554 9.20058 124.253 9.10115C123.048 8.71244 121.824 8.55877 120.583 8.64012C120.063 8.67176 119.435 8.84804 119.054 9.17798C118.601 9.57573 118.467 10.213 118.579 10.787C118.709 11.4334 119.202 11.7498 119.762 12.0255C120.081 12.1792 120.403 12.3238 120.735 12.4458C121.519 12.7487 122.304 13.0515 123.088 13.3634C123.801 13.6481 124.572 14.0911 125.074 14.6651C125.535 15.1939 125.795 15.8312 125.854 16.586C125.952 17.8742 125.612 19.0358 124.652 19.9126C123.33 21.1194 121.587 21.3228 119.883 21.246C118.767 21.1963 117.687 20.9703 116.638 20.568C116.298 20.4369 115.908 20.2968 115.89 19.8584C115.872 19.2934 115.867 18.9273 115.885 18.7555C115.926 18.2719 116.347 18.3939 116.67 18.4979Z" fill="#222E3E"/>
<path d="M23.8442 9.05611C23.8487 9.07419 23.8577 9.07419 23.8621 9.05611C24.3238 7.8448 25.1485 7.08094 26.3273 6.76455C27.2507 6.51596 28.295 6.6154 29.1332 7.05382C30.1282 7.5736 30.7198 8.3917 30.8991 9.50358C31.0426 10.3985 30.9708 11.3386 30.9708 12.2516C30.9708 14.9455 30.9708 17.6348 30.9708 20.3286C30.9708 20.4823 30.9484 20.5953 30.9126 20.6676C30.7916 20.8936 30.5899 20.9297 30.3344 20.9297C29.5455 20.9297 28.7567 20.9297 27.9678 20.9297C27.7482 20.9297 27.5958 20.8484 27.5151 20.6902C27.4748 20.6088 27.4524 20.4597 27.4524 20.2382C27.4524 17.9286 27.4434 15.6144 27.4568 13.3048C27.4613 12.8121 27.4568 12.3194 27.4434 11.8223C27.421 11.0765 27.3 10.2268 26.4349 10.0188C25.6236 9.82901 24.8393 10.1273 24.4359 10.8686C24.158 11.3838 24.1311 12.107 24.1311 12.7353C24.1311 15.2619 24.1311 17.7839 24.1311 20.3105C24.1311 20.4868 24.1087 20.6134 24.0683 20.6902C23.9518 20.8981 23.7546 20.9252 23.5125 20.9252C22.7237 20.9252 21.9348 20.9252 21.146 20.9252C20.7605 20.9252 20.6215 20.7128 20.6215 20.3512C20.6171 17.8427 20.6215 15.3297 20.626 12.8211C20.626 11.768 20.6843 10.0279 19.2097 9.9194C17.3899 9.78381 17.3003 11.6415 17.2958 12.9251C17.2958 15.4065 17.2958 17.8879 17.2958 20.3648C17.2958 20.7987 17.0762 20.9207 16.6772 20.9207C15.8839 20.9207 15.0906 20.9207 14.3017 20.9207C13.9162 20.9207 13.7818 20.6947 13.7818 20.3376C13.7773 16.0483 13.7773 11.759 13.7818 7.46513C13.7818 7.06738 13.9969 6.90015 14.3734 6.90015C15.0816 6.90015 15.7898 6.90015 16.4935 6.90015C16.6279 6.90015 16.7266 6.91823 16.7983 6.94987C16.9641 7.0267 17.1075 7.18038 17.1075 7.37473C17.1075 7.93067 17.1075 8.49113 17.1075 9.05611C17.1075 9.07419 17.1299 9.08323 17.1434 9.07419C17.1479 9.06967 17.1524 9.06063 17.1613 9.04707C17.7888 7.42445 19.0214 6.53404 20.765 6.62444C22.3248 6.71483 23.2839 7.65496 23.8442 9.05611Z" fill="#222E3E"/>
<path d="M40.5716 12.0526C40.5895 11.2526 40.6881 10.2401 40.0517 9.67516C39.3928 9.08758 38.2095 9.16442 37.5282 9.66612C37.1652 9.93279 36.9321 10.3079 36.82 10.787C36.7618 11.0537 36.578 11.239 36.2911 11.2074C35.5785 11.126 34.8703 11.0492 34.1576 10.9678C33.9649 10.9452 33.8394 10.9136 33.7722 10.8729C33.575 10.7464 33.5615 10.552 33.6108 10.326C34.0008 8.55424 35.2244 7.42428 36.9411 6.94066C38.2274 6.57907 39.5273 6.53839 40.8361 6.8141C42.1493 7.09433 43.3819 7.80395 43.8346 9.1599C44.0274 9.73392 44.0811 10.3305 44.0811 10.9317C44.0811 12.5498 44.0856 14.1724 44.0856 15.7905C44.0856 16.2109 44.1035 16.5137 44.1394 16.69C44.2649 17.3408 44.6056 17.7883 44.9865 18.3081C45.2331 18.6471 45.2644 18.873 44.9417 19.1533C44.3814 19.6414 43.8257 20.1296 43.2654 20.6177C43.0592 20.7985 42.9292 20.8934 42.6737 20.8392C42.602 20.8256 42.5258 20.7849 42.4362 20.7171C41.8266 20.2516 41.4591 19.7409 41.0871 19.1352C41.0781 19.1216 41.0557 19.1171 41.0422 19.1307C40.2758 19.9533 39.3211 20.6448 38.223 20.8256C36.5063 21.1104 34.6103 20.8753 33.6512 19.2166C33.0909 18.2448 33.0012 16.9295 33.2657 15.8583C33.7587 13.8289 35.4037 12.8662 37.3176 12.4955C38.3843 12.2876 39.4645 12.2018 40.5402 12.0752C40.5671 12.0752 40.5716 12.0662 40.5716 12.0526ZM36.959 15.8131C36.7842 16.3917 36.7887 16.9431 36.9814 17.4674C37.1472 17.9194 37.4475 18.2177 37.8868 18.3578C38.5815 18.5793 39.2718 18.299 39.7514 17.7883C40.715 16.7578 40.5895 15.3882 40.5761 14.0956C40.5761 14.0865 40.5716 14.082 40.5626 14.082C39.7155 14.0775 38.8236 14.1724 38.0706 14.5295C37.5103 14.7916 37.1383 15.221 36.959 15.8131Z" fill="#222E3E"/>
<path d="M57.8324 11.9985C58.3658 8.92501 60.3738 6.49333 63.704 6.63797C66.9133 6.77356 68.6792 9.31372 69.1409 12.2697C69.5129 14.6562 69.1902 17.3907 67.6394 19.3161C66.5368 20.6856 65.0084 21.4133 63.2334 21.3636C61.8126 21.3229 60.6203 20.8077 59.6567 19.8133C57.7428 17.8472 57.3842 14.5658 57.8324 11.9985ZM61.454 15.0584C61.5168 16.2246 61.7946 18.6246 63.4396 18.602C65.2862 18.5749 65.47 16.1432 65.4745 14.8234C65.479 13.3861 65.4655 12.2742 65.2011 11.0177C65.0308 10.1951 64.6856 9.52163 63.7892 9.37247C62.0725 9.08772 61.5929 10.8188 61.4943 12.1341C61.4137 13.1059 61.4047 14.0822 61.454 15.0584Z" fill="#222E3E"/>
<path d="M74.4029 9.273C74.4209 9.29108 74.4388 9.28656 74.4478 9.26396C74.6763 8.68994 74.9542 8.16564 75.3532 7.69558C76.1958 6.71025 77.6032 6.4707 78.8223 6.71477C79.9743 6.94528 80.8886 7.65038 81.2875 8.78034C81.6282 9.73855 81.6595 10.7826 81.7268 11.7815C81.7447 12.0708 81.7537 12.3691 81.7537 12.6855C81.7537 15.2844 81.7537 17.8833 81.7537 20.4822C81.7537 20.663 81.5654 20.8393 81.413 20.898C81.3458 20.9206 81.2337 20.9342 81.0679 20.9342C80.2701 20.9342 79.4723 20.9342 78.6744 20.9342C78.4638 20.9342 78.3159 20.8528 78.2262 20.6811C78.1859 20.6043 78.1679 20.4913 78.1679 20.3376C78.1679 17.7794 78.1679 15.2211 78.1769 12.6629C78.1769 12.2245 78.1455 11.786 78.0783 11.3521C77.9842 10.7239 77.6794 10.1001 77.0384 9.9103C76.0837 9.63007 75.3173 10.1589 74.9542 11.0267C74.6539 11.7454 74.5867 12.5002 74.5867 13.2776C74.5867 15.6324 74.5867 17.9827 74.5867 20.3376C74.5867 20.7941 74.385 20.9297 73.9592 20.9297C73.1345 20.9297 72.3098 20.9297 71.485 20.9297C71.2878 20.9297 71.1489 20.8528 71.0682 20.7037C71.0234 20.6223 71.001 20.4822 71.001 20.2879C71.001 16.0076 71.001 11.7273 71.001 7.44247C71.001 7.07636 71.2161 6.90461 71.5837 6.90461C72.3277 6.90461 73.0717 6.90461 73.8158 6.90461C74.1474 6.90461 74.394 7.03568 74.394 7.39275C74.394 8.00745 74.394 8.61763 74.394 9.23233C74.394 9.25944 74.3984 9.26848 74.4029 9.273Z" fill="#222E3E"/>
<path d="M52.1401 9.82901C50.773 9.82901 49.397 9.82901 48.0165 9.82901C47.8282 9.82901 47.6938 9.80642 47.6176 9.76122C47.4159 9.6437 47.4024 9.45387 47.4024 9.21432C47.4024 8.71713 47.4024 8.22447 47.4024 7.72729C47.4024 7.33858 47.4428 7.05835 47.891 7.05835C50.6027 7.05835 53.3144 7.05835 56.0261 7.05835C56.2368 7.05835 56.3802 7.13067 56.4609 7.27982C56.5057 7.36118 56.5281 7.49677 56.5281 7.69565C56.5281 8.11147 56.5281 8.5273 56.5281 8.94312C56.5281 9.27307 56.4474 9.49455 56.2681 9.74766C54.7263 11.9398 53.1844 14.1364 51.647 16.3286C51.6381 16.3421 51.6425 16.3512 51.656 16.3512C51.8756 16.3512 52.0908 16.3557 52.3059 16.3557C53.5878 16.3783 54.8697 16.6314 56.0306 17.2054C56.4609 17.4178 56.8015 17.6935 56.8015 18.2133C56.8015 18.8235 56.8015 19.4292 56.8015 20.0393C56.8015 20.2518 56.6312 20.4913 56.4026 20.4913C56.3443 20.4913 56.2547 20.4597 56.1337 20.4009C53.3816 19.0043 50.1903 19.0314 47.4428 20.4687C47.25 20.5682 47.0214 20.3874 46.9452 20.2111C46.9184 20.1478 46.9049 20.0484 46.9049 19.9038C46.9049 19.28 46.9049 18.6608 46.9094 18.0371C46.9094 17.7161 46.9677 17.4269 47.0797 17.1692C47.129 17.0608 47.2814 16.8167 47.5459 16.4415C49.0743 14.2539 50.6117 12.0573 52.1535 9.85161C52.167 9.83805 52.1625 9.82901 52.1401 9.82901Z" fill="#222E3E"/>
<path d="M47.0797 22.5071C48.7739 21.4631 50.9523 21.1964 52.8885 21.445C53.3637 21.5082 53.9777 21.6167 54.3856 21.8879C54.5425 21.9919 54.6052 22.1862 54.6231 22.358C54.6724 22.8371 54.6545 23.3343 54.5738 23.8495C54.2556 25.8609 53.3681 28.0665 51.7949 29.4225C51.656 29.54 51.3467 29.6937 51.1988 29.5129C51.1315 29.4315 51.1181 29.3411 51.154 29.2462C51.4094 28.5818 51.656 27.9129 51.8935 27.2439C52.158 26.4936 52.3641 25.7253 52.5121 24.9433C52.5569 24.7128 52.5838 24.4778 52.5882 24.2428C52.6017 23.6823 52.4045 23.3885 51.8487 23.2529C51.4677 23.1625 51.0598 23.1173 50.6295 23.1128C49.3432 23.1038 48.1599 23.2258 46.8869 23.393C46.4387 23.4518 46.358 23.054 46.6673 22.8009C46.7973 22.697 46.9362 22.5975 47.0797 22.5071Z" fill="#222E3E"/>
<path d="M12.2669 22.3128C18.2909 25.8835 25.1127 27.8451 32.0825 28.1163C38.0975 28.3513 44.2739 27.1084 49.7915 24.6993C50.2621 24.4959 50.912 24.853 50.7596 25.427C50.7193 25.5807 50.6162 25.7208 50.4459 25.8428C46.8288 28.5547 42.3825 30.1819 37.9675 30.9096C28.564 32.4553 19.129 29.5988 12.0562 23.2077C11.8455 23.0179 11.6259 22.8597 11.6394 22.575C11.6483 22.2224 12.0069 22.1591 12.2669 22.3128Z" fill="#222E3E"/>
<path d="M7.44847 12.0482C7.4664 11.2482 7.56501 10.2357 6.92854 9.67077C6.26966 9.08319 5.08637 9.16003 4.40509 9.66173C4.04203 9.9284 3.80896 10.3035 3.69691 10.7826C3.63864 11.0493 3.45487 11.2346 3.16801 11.203C2.45535 11.1216 1.74717 11.0448 1.0345 10.9634C0.841771 10.9408 0.716271 10.9092 0.649039 10.8685C0.451824 10.742 0.438377 10.5476 0.487681 10.3216C0.877629 8.54985 2.10126 7.41989 3.81792 6.93626C5.1043 6.57468 6.40413 6.534 7.71292 6.80971C9.02619 7.08994 10.2588 7.79955 10.7115 9.15551C10.9042 9.72953 10.958 10.3261 10.958 10.9273C10.958 12.5454 10.9625 14.168 10.9625 15.7861C10.9625 16.2065 10.9804 16.5093 11.0163 16.6856C11.1418 17.3364 11.4824 17.7839 11.8634 18.3037C12.1099 18.6427 12.1413 18.8687 11.8186 19.1489C11.2583 19.637 10.7025 20.1252 10.1422 20.6133C9.93607 20.7941 9.80609 20.889 9.5506 20.8348C9.47889 20.8212 9.40269 20.7805 9.31305 20.7127C8.70347 20.2472 8.33594 19.7365 7.96392 19.1308C7.95495 19.1172 7.93254 19.1127 7.9191 19.1263C7.15265 19.9489 6.19795 20.6404 5.09982 20.8212C3.38315 21.106 1.4872 20.8709 0.528021 19.2122C-0.0322491 18.2404 -0.121892 16.9251 0.142555 15.8539C0.635592 13.8245 2.28054 12.8618 4.19443 12.4912C5.26118 12.2832 6.34138 12.1974 7.4171 12.0708C7.43951 12.0753 7.44399 12.0663 7.44847 12.0482ZM3.83137 15.8087C3.65657 16.3873 3.66105 16.9387 3.85378 17.463C4.01962 17.915 4.31993 18.2133 4.75918 18.3534C5.45391 18.5749 6.14416 18.2946 6.62375 17.7839C7.58742 16.7534 7.46192 15.3839 7.44847 14.0912C7.44847 14.0821 7.44399 14.0776 7.43502 14.0776C6.5879 14.0731 5.69595 14.168 4.94295 14.5251C4.38268 14.7872 4.01514 15.2166 3.83137 15.8087Z" fill="#222E3E"/>
</g>
<defs>
<clipPath id="clip0_806727_596">
<rect width="126" height="31" fill="white" transform="translate(0 0.5)"/>
</clipPath>
</defs>
</svg>
