<svg width="59" height="76" viewBox="0 0 59 76" fill="none" xmlns="http://www.w3.org/2000/svg">
<path d="M30.7994 0.0583646L28.1566 0.0629515C26.125 0.0664775 24.481 1.7849 24.4848 3.90117L24.5152 21.2375C24.5189 23.3537 26.1689 25.0664 28.2005 25.0629L30.8433 25.0583C32.8749 25.0548 34.5189 23.3364 34.5152 21.2201L34.4847 3.88381C34.481 1.76755 32.8311 0.0548385 30.7994 0.0583646Z" fill="#EC8602"/>
<path d="M1.76735 35.2085L28.9484 43.058C29.2865 43.1529 29.6507 43.1529 29.9888 43.058L57.2479 35.1451C58.2883 34.8444 59.3548 35.4933 58.8866 36.1263L30.405 74.6302C29.9628 75.2157 28.6103 75.2157 28.1681 74.6302L0.102672 36.1896C-0.339508 35.5566 0.726925 34.9236 1.76735 35.2085Z" fill="#EC8602"/>
</svg>
