<svg width="35" height="36" viewBox="0 0 35 36" fill="none" xmlns="http://www.w3.org/2000/svg">
<path d="M10.6111 23.8228V29.0728C10.6111 29.4209 10.4735 29.7547 10.2287 30.0008C9.98386 30.247 9.65179 30.3853 9.30554 30.3853H5.38887C5.04261 30.3853 4.71054 30.247 4.4657 30.0008C4.22086 29.7547 4.08331 29.4209 4.08331 29.0728V23.8228C4.08331 23.4747 4.22086 23.1408 4.4657 22.8947C4.71054 22.6485 5.04261 22.5103 5.38887 22.5103H9.30554C9.65179 22.5103 9.98386 22.6485 10.2287 22.8947C10.4735 23.1408 10.6111 23.4747 10.6111 23.8228ZM19.75 19.8853H15.8333C15.4871 19.8853 15.155 20.0235 14.9101 20.2697C14.6653 20.5158 14.5278 20.8497 14.5278 21.1978V29.0728C14.5278 29.4209 14.6653 29.7547 14.9101 30.0008C15.155 30.247 15.4871 30.3853 15.8333 30.3853H19.75C20.0962 30.3853 20.4283 30.247 20.6731 30.0008C20.918 29.7547 21.0555 29.4209 21.0555 29.0728V21.1978C21.0555 20.8497 20.918 20.5158 20.6731 20.2697C20.4283 20.0235 20.0962 19.8853 19.75 19.8853ZM30.1944 14.6353H26.2778C25.9315 14.6353 25.5994 14.7735 25.3546 15.0197C25.1098 15.2658 24.9722 15.5997 24.9722 15.9478V29.0728C24.9722 29.4209 25.1098 29.7547 25.3546 30.0008C25.5994 30.247 25.9315 30.3853 26.2778 30.3853H30.1944C30.5407 30.3853 30.8728 30.247 31.1176 30.0008C31.3624 29.7547 31.5 29.4209 31.5 29.0728V15.9478C31.5 15.5997 31.3624 15.2658 31.1176 15.0197C30.8728 14.7735 30.5407 14.6353 30.1944 14.6353ZM27.5833 11.0128C27.6245 11.1851 27.699 11.3476 27.8026 11.491C27.9062 11.6345 28.0369 11.7559 28.1873 11.8486C28.3376 11.9412 28.5046 12.0031 28.6787 12.0309C28.8529 12.0586 29.0308 12.0516 29.2022 12.0103C29.3736 11.9689 29.5353 11.894 29.678 11.7898C29.8206 11.6856 29.9415 11.5542 30.0336 11.4031C30.1257 11.252 30.1874 11.0841 30.215 10.909C30.2425 10.7339 30.2356 10.5551 30.1944 10.3828L28.8889 5.13275V5.01463C28.8473 4.90462 28.7948 4.79909 28.7322 4.69963L28.6278 4.59463C28.5549 4.50992 28.4715 4.43493 28.3797 4.3715H28.2883C28.159 4.26151 28.0076 4.18092 27.8444 4.13525H27.6616H22.3611C22.0148 4.13525 21.6828 4.27353 21.4379 4.51968C21.1931 4.76582 21.0555 5.09966 21.0555 5.44775C21.0555 5.79585 21.1931 6.12969 21.4379 6.37583C21.6828 6.62197 22.0148 6.76025 22.3611 6.76025H25.1419C19.4889 14.2284 9.17498 15.9478 5.38887 15.9478C5.04261 15.9478 4.71054 16.086 4.4657 16.3322C4.22086 16.5783 4.08331 16.9122 4.08331 17.2603C4.08331 17.6084 4.22086 17.9422 4.4657 18.1883C4.71054 18.4345 5.04261 18.5728 5.38887 18.5728C9.51442 18.5728 20.6769 16.6828 27.0219 8.58463L27.5833 11.0128Z" fill="#EC8602"/>
</svg>
