<svg width="35" height="35" viewBox="0 0 35 35" fill="none" xmlns="http://www.w3.org/2000/svg">
<path d="M27.2144 7.7848C25.1411 5.70996 22.4044 4.66507 19.6872 4.66663C16.9693 4.66507 14.2334 5.70996 12.16 7.7848C10.0852 9.85814 9.03949 12.5948 9.04265 15.3112C9.0403 17.2091 9.56194 19.1093 10.5739 20.7933L5.41922 25.948C4.41584 26.9513 4.41584 28.5774 5.41922 29.5808C6.4218 30.5841 8.04864 30.5841 9.05122 29.5808L14.2067 24.4253C15.8899 25.438 17.7909 25.9589 19.6872 25.9566C22.4043 25.9589 25.1411 24.914 27.2144 22.8392C29.2885 20.7659 30.3341 18.0299 30.3318 15.3112C30.335 12.5948 29.2885 9.85814 27.2144 7.7848ZM24.3077 19.9333C23.027 21.2131 21.3665 21.8444 19.6872 21.8476C18.0079 21.8444 16.3482 21.2132 15.0659 19.9333C13.7861 18.6511 13.1547 16.9913 13.1516 15.3112C13.1547 13.6327 13.786 11.9722 15.0659 10.6907C16.3481 9.41089 18.0079 8.77956 19.6872 8.77641C21.3665 8.77956 23.0271 9.41084 24.3085 10.6907C25.5883 11.9722 26.2197 13.6327 26.2228 15.3112C26.2197 16.9914 25.5883 18.6511 24.3077 19.9333Z" fill="#EC8602"/>
</svg>
