<svg width="85" height="32" viewBox="0 0 85 32" fill="none" xmlns="http://www.w3.org/2000/svg">
<path d="M40.3134 13.4771C39.5244 13.0249 38.9019 12.4076 38.4386 11.6181C37.9753 10.8286 37.7437 9.96008 37.7437 9.00546C37.7437 8.05084 37.9753 7.18235 38.4386 6.39282C38.9019 5.60328 39.5244 4.98601 40.3134 4.53382C41.0952 4.08164 41.9566 3.85913 42.8904 3.85913C43.6216 3.85913 44.3092 3.98833 44.9463 4.24672C45.5905 4.50511 46.1189 4.86399 46.5315 5.33054L45.6846 6.17031C45.3733 5.78272 44.968 5.48844 44.4757 5.28029C43.9835 5.07214 43.4623 4.97166 42.8977 4.97166C42.1955 4.97166 41.544 5.13674 40.936 5.47409C40.3279 5.81143 39.8429 6.27798 39.481 6.88807C39.119 7.49817 38.9308 8.20157 38.9308 8.99828C38.9308 9.795 39.1118 10.4984 39.481 11.1085C39.8501 11.7186 40.3351 12.1923 40.9432 12.5225C41.5513 12.8598 42.2027 13.0249 42.8977 13.0249C43.5926 13.0249 44.121 12.9244 44.5698 12.7163C45.0186 12.5081 45.4023 12.2354 45.728 11.898C45.9669 11.6396 46.1624 11.331 46.3071 10.9721C46.4519 10.6132 46.546 10.2113 46.5822 9.76629H42.9049V8.68247H47.6753C47.7187 8.94086 47.7477 9.17772 47.7477 9.40023C47.7477 10.0031 47.6536 10.5917 47.4581 11.1659C47.2627 11.7401 46.9514 12.2426 46.5315 12.6732C45.6195 13.6565 44.4033 14.1446 42.8832 14.1446C41.9494 14.1446 41.088 13.9221 40.3062 13.4699L40.3134 13.4771ZM50.6794 13.6494C50.122 13.3192 49.6949 12.8742 49.3836 12.3C49.0724 11.7329 48.9203 11.1013 48.9203 10.4194C48.9203 9.73757 49.0724 9.10595 49.3836 8.53892C49.6949 7.97189 50.122 7.5197 50.6794 7.18953C51.2368 6.85936 51.8593 6.69428 52.5542 6.69428C53.2491 6.69428 53.8717 6.85936 54.4291 7.18953C54.9865 7.5197 55.4135 7.97189 55.7248 8.53892C56.0361 9.10595 56.1881 9.73757 56.1881 10.4194C56.1881 11.1013 56.0361 11.7329 55.7248 12.3C55.4135 12.867 54.9865 13.3192 54.4291 13.6494C53.8717 13.9795 53.2491 14.1446 52.5542 14.1446C51.8593 14.1446 51.2368 13.9795 50.6794 13.6494ZM53.7631 12.7665C54.1395 12.5512 54.4363 12.2426 54.668 11.8406C54.8924 11.4387 55.0082 10.9649 55.0082 10.4266C55.0082 9.8883 54.8924 9.41458 54.668 9.01264C54.4435 8.61069 54.1395 8.30206 53.7631 8.08673C53.3867 7.8714 52.9813 7.76374 52.547 7.76374C52.1127 7.76374 51.7073 7.8714 51.3236 8.08673C50.9472 8.30206 50.6432 8.61069 50.4188 9.01264C50.1944 9.41458 50.0786 9.8883 50.0786 10.4266C50.0786 10.9649 50.1944 11.4387 50.4188 11.8406C50.6432 12.2426 50.9472 12.5512 51.3236 12.7665C51.7 12.9818 52.1054 13.0895 52.547 13.0895C52.9886 13.0895 53.3867 12.9818 53.7631 12.7665ZM58.9316 13.6494C58.3742 13.3192 57.9471 12.8742 57.6359 12.3C57.3246 11.7329 57.1726 11.1013 57.1726 10.4194C57.1726 9.73757 57.3246 9.10595 57.6359 8.53892C57.9471 7.97189 58.3742 7.5197 58.9316 7.18953C59.489 6.85936 60.1115 6.69428 60.8064 6.69428C61.5014 6.69428 62.1239 6.85936 62.6813 7.18953C63.2387 7.5197 63.6658 7.97189 63.977 8.53892C64.2883 9.10595 64.4403 9.73757 64.4403 10.4194C64.4403 11.1013 64.2883 11.7329 63.977 12.3C63.6658 12.867 63.2387 13.3192 62.6813 13.6494C62.1239 13.9795 61.5014 14.1446 60.8064 14.1446C60.1115 14.1446 59.489 13.9795 58.9316 13.6494ZM62.0153 12.7665C62.3917 12.5512 62.6885 12.2426 62.9202 11.8406C63.1446 11.4387 63.2604 10.9649 63.2604 10.4266C63.2604 9.8883 63.1446 9.41458 62.9202 9.01264C62.6958 8.61069 62.3917 8.30206 62.0153 8.08673C61.6389 7.8714 61.2335 7.76374 60.7992 7.76374C60.3649 7.76374 59.9595 7.8714 59.5759 8.08673C59.1994 8.30206 58.8954 8.61069 58.671 9.01264C58.4466 9.41458 58.3308 9.8883 58.3308 10.4266C58.3308 10.9649 58.4466 11.4387 58.671 11.8406C58.8954 12.2426 59.1994 12.5512 59.5759 12.7665C59.9523 12.9818 60.3576 13.0895 60.7992 13.0895C61.2408 13.0895 61.6389 12.9818 62.0153 12.7665ZM66.8364 16.5419C66.2935 16.1543 65.9315 15.695 65.7505 15.1567L66.8146 14.7045C66.9739 15.1064 67.2345 15.4366 67.5964 15.6878C67.9584 15.939 68.3927 16.0682 68.8922 16.0682C69.6233 16.0682 70.1879 15.8672 70.5933 15.4653C70.9987 15.0633 71.1941 14.482 71.1941 13.7355V12.9531H71.1362C70.9046 13.312 70.5788 13.5991 70.159 13.8288C69.7391 14.0513 69.2614 14.1661 68.7257 14.1661C68.1176 14.1661 67.5602 14.0082 67.0535 13.6924C66.5468 13.3766 66.1487 12.9388 65.8519 12.3718C65.5551 11.8047 65.4103 11.1659 65.4103 10.441C65.4103 9.71604 65.5551 9.08441 65.8519 8.51739C66.1487 7.95036 66.5468 7.50535 67.0535 7.18953C67.5602 6.87372 68.1104 6.71581 68.7257 6.71581C69.2614 6.71581 69.7391 6.83065 70.159 7.05316C70.5788 7.27566 70.9046 7.56994 71.1362 7.936H71.1941V6.93114H72.3161V13.6637C72.3161 14.7906 72.0049 15.6519 71.3751 16.2405C70.7453 16.829 69.9201 17.1233 68.8922 17.1233C68.0597 17.1233 67.372 16.9295 66.8364 16.5491V16.5419ZM70.0576 12.7665C70.4051 12.5512 70.6802 12.2426 70.8901 11.8478C71.1 11.4458 71.2014 10.9721 71.2014 10.4266C71.2014 9.88113 71.1 9.38587 70.8901 8.99111C70.6802 8.58916 70.4051 8.2877 70.0576 8.07955C69.7102 7.8714 69.3265 7.76374 68.8994 7.76374C68.4723 7.76374 68.0887 7.8714 67.734 8.08673C67.3793 8.30206 67.1042 8.61069 66.8943 9.00546C66.6843 9.40741 66.583 9.88113 66.583 10.4266C66.583 10.9721 66.6843 11.453 66.8943 11.855C67.1042 12.2569 67.3793 12.5655 67.734 12.7737C68.0887 12.9818 68.4723 13.0895 68.8994 13.0895C69.3265 13.0895 69.7102 12.9818 70.0576 12.7665ZM74.0534 4.08164H75.2334V13.9221H74.0534V4.08164ZM78.3098 13.6637C77.7742 13.3407 77.3543 12.9029 77.0575 12.3359C76.7535 11.7688 76.6087 11.1372 76.6087 10.4338C76.6087 9.7304 76.7463 9.13466 77.0286 8.56045C77.3109 7.99342 77.709 7.54123 78.2302 7.19671C78.7442 6.85936 79.345 6.6871 80.0327 6.6871C80.7204 6.6871 81.3284 6.83783 81.8351 7.14647C82.3419 7.4551 82.7328 7.87858 83.0078 8.4169C83.2829 8.95522 83.4204 9.57967 83.4204 10.2759C83.4204 10.4123 83.406 10.5343 83.377 10.6348H77.7887C77.8176 11.1659 77.9479 11.6181 78.1795 11.9842C78.4112 12.3502 78.7007 12.623 79.0627 12.8096C79.4174 12.9962 79.7938 13.0823 80.1775 13.0823C81.0823 13.0823 81.7845 12.6589 82.2695 11.8191L83.2684 12.3C82.9644 12.867 82.5518 13.3192 82.0306 13.6494C81.5094 13.9795 80.8796 14.1446 80.1413 14.1446C79.4681 14.1446 78.86 13.9867 78.3243 13.6637H78.3098ZM82.1681 9.68015C82.1464 9.38587 82.0668 9.09159 81.9148 8.79731C81.77 8.50303 81.5311 8.25899 81.2126 8.05802C80.8941 7.85705 80.496 7.75656 80.011 7.75656C79.4536 7.75656 78.9903 7.936 78.6066 8.2877C78.223 8.6394 77.9696 9.10595 77.8538 9.68015H82.1681ZM38.3155 18.0708H41.6598C42.2172 18.0708 42.7312 18.1928 43.2017 18.444C43.6722 18.6952 44.0486 19.0397 44.331 19.4847C44.6133 19.9298 44.7508 20.4322 44.7508 20.992C44.7508 21.5519 44.6133 22.0543 44.331 22.4993C44.0486 22.9443 43.6722 23.2889 43.2017 23.5401C42.7312 23.7913 42.2172 23.9133 41.6598 23.9133H39.481V27.9256H38.3155V18.0851V18.0708ZM41.6816 22.7864C42.0507 22.7864 42.3765 22.7003 42.6588 22.528C42.9411 22.3558 43.1583 22.1333 43.3175 21.8533C43.4768 21.5734 43.5564 21.2863 43.5564 20.9849C43.5564 20.6834 43.4768 20.3963 43.3175 20.1164C43.1583 19.8364 42.9411 19.6139 42.6588 19.4417C42.3765 19.2694 42.0507 19.1833 41.6816 19.1833H39.4737V22.7864H41.6816ZM47.1179 27.8323C46.7125 27.6313 46.394 27.3514 46.1768 26.9997C45.9524 26.648 45.8439 26.246 45.8439 25.7938C45.8439 25.0545 46.1262 24.4732 46.6908 24.0569C47.2554 23.6406 47.9648 23.4324 48.8262 23.4324C49.2533 23.4324 49.6442 23.4755 50.0134 23.5688C50.3753 23.6621 50.6577 23.7626 50.8531 23.8846V23.4611C50.8531 22.9372 50.6649 22.5209 50.2957 22.205C49.9265 21.8892 49.4633 21.7313 48.8986 21.7313C48.5005 21.7313 48.1386 21.8175 47.8056 21.9825C47.4726 22.1548 47.212 22.3917 47.0165 22.6931L46.1262 22.0328C46.4012 21.6093 46.7849 21.2791 47.2699 21.0423C47.7549 20.8054 48.2906 20.6834 48.8842 20.6834C49.8469 20.6834 50.5997 20.9346 51.1499 21.4299C51.7 21.9323 51.9751 22.607 51.9751 23.4683V27.9112H50.8531V26.9064H50.7952C50.5925 27.2437 50.2885 27.538 49.8831 27.7749C49.4777 28.0117 49.0217 28.1337 48.5077 28.1337C47.9938 28.1337 47.5305 28.0332 47.1251 27.8323H47.1179ZM49.7239 26.8059C50.0641 26.6049 50.3391 26.3322 50.5418 25.9948C50.7445 25.6575 50.8459 25.2842 50.8459 24.8823C50.6215 24.7387 50.3536 24.6167 50.0279 24.5234C49.7021 24.4301 49.3619 24.387 49 24.387C48.3557 24.387 47.8635 24.5162 47.5377 24.789C47.212 25.0545 47.0455 25.3991 47.0455 25.8225C47.0455 26.2101 47.1903 26.5188 47.4871 26.7556C47.7839 26.9925 48.1603 27.1145 48.6091 27.1145C49.0072 27.1145 49.3764 27.014 49.7166 26.8131L49.7239 26.8059ZM53.4084 21.0136H54.5304V22.1261H54.5883C54.7548 21.7098 55.0371 21.394 55.4353 21.1643C55.8334 20.9346 56.2677 20.8198 56.7382 20.8198C56.9409 20.8198 57.1147 20.8341 57.2522 20.8628V22.0615C57.0929 22.0256 56.883 22.0041 56.6152 22.0041C56.0144 22.0041 55.5294 22.1979 55.1529 22.5926C54.7765 22.9874 54.5883 23.497 54.5883 24.1358V28.0261H53.4084V21.0136ZM60.5893 27.9974C60.3432 27.9041 60.1405 27.782 59.974 27.6169C59.7858 27.4375 59.6482 27.2365 59.5614 26.9997C59.4673 26.7628 59.4238 26.4829 59.4238 26.1455V21.961H58.1932V20.8987H59.4238V18.9177H60.6038V20.8987H62.3266V21.961H60.6038V25.8656C60.6038 26.2604 60.6761 26.5475 60.8282 26.7341C61.0019 26.9423 61.2553 27.0427 61.5882 27.0427C61.8561 27.0427 62.1167 26.9638 62.3628 26.8059V27.9471C62.2252 28.0117 62.0805 28.0548 61.9429 28.0835C61.7982 28.1122 61.6172 28.1266 61.3928 28.1266C61.1032 28.1266 60.8426 28.0763 60.5965 27.9902L60.5893 27.9974ZM63.6585 20.9059H64.7805V21.9395H64.8385C65.0339 21.5878 65.3452 21.2935 65.765 21.0495C66.1921 20.8054 66.6409 20.6834 67.1259 20.6834C67.9729 20.6834 68.6243 20.9274 69.0731 21.4155C69.522 21.9036 69.7464 22.5711 69.7464 23.4181V27.9112H68.5664V23.5975C68.5664 22.9443 68.4072 22.4778 68.0959 22.1835C67.7846 21.8892 67.3503 21.7457 66.8074 21.7457C66.431 21.7457 66.0908 21.8533 65.7867 22.0615C65.4899 22.2696 65.2511 22.5496 65.0846 22.8941C64.9181 23.2386 64.8312 23.5975 64.8312 23.9707V27.9184H63.6513V20.9059H63.6585ZM72.7649 27.6528C72.2293 27.3298 71.8094 26.892 71.5126 26.325C71.2158 25.758 71.0638 25.1263 71.0638 24.4229C71.0638 23.7195 71.2014 23.1238 71.4837 22.5496C71.766 21.9825 72.1641 21.5304 72.6853 21.1858C73.2065 20.8413 73.8001 20.6762 74.4878 20.6762C75.1754 20.6762 75.7835 20.8269 76.2902 21.1356C76.7969 21.4442 77.1878 21.8677 77.4629 22.406C77.738 22.9443 77.8755 23.5688 77.8755 24.265C77.8755 24.4014 77.861 24.5234 77.8321 24.6239H72.2437C72.2727 25.155 72.403 25.6072 72.6346 25.9733C72.8663 26.3393 73.1558 26.6121 73.5178 26.7987C73.8725 26.9853 74.2416 27.0714 74.6325 27.0714C75.5374 27.0714 76.2396 26.648 76.7246 25.8082L77.7235 26.2891C77.4195 26.8561 77.0069 27.3083 76.4857 27.6385C75.9645 27.9686 75.3347 28.1337 74.5963 28.1337C73.9231 28.1337 73.3151 27.9758 72.7794 27.6528H72.7649ZM76.6232 23.6693C76.6015 23.375 76.5219 23.0807 76.3698 22.7864C76.2251 22.4921 75.9862 22.2481 75.6677 22.0471C75.3492 21.8462 74.951 21.7457 74.466 21.7457C73.9087 21.7457 73.4454 21.9251 73.0617 22.2768C72.6781 22.6285 72.4247 23.0951 72.3089 23.6693H76.6232ZM79.2219 20.9059H80.3439V22.0328H80.4019C80.5394 21.6452 80.8072 21.3294 81.2054 21.071C81.6035 20.8126 82.0161 20.6834 82.4504 20.6834C82.7762 20.6834 83.0513 20.7336 83.2829 20.8341V22.083C82.9861 21.9395 82.6531 21.8605 82.2839 21.8605C81.9437 21.8605 81.6252 21.9538 81.3429 22.1476C81.0533 22.3414 80.8289 22.5998 80.6552 22.93C80.4815 23.253 80.4019 23.6047 80.4019 23.9851V27.9112H79.2219V20.8987V20.9059Z" fill="#5F6368" stroke="#5F6368" stroke-width="0.25" stroke-miterlimit="10"/>
<path d="M31.0549 16.3554C31.0549 15.2572 30.8812 14.2021 30.7002 13.1829H16.1357V19.169H24.3083C23.9464 21.1069 23.0198 22.7506 21.3622 23.8559V27.7605H26.4221C29.3683 25.0618 31.0621 21.071 31.0621 16.3554H31.0549Z" fill="#4284F4"/>
<path d="M16.0852 31.4999C20.2909 31.4999 23.8307 30.129 26.4149 27.7604L21.355 23.8558C19.9651 24.7888 18.1772 25.3343 16.0852 25.3343C12.0314 25.3343 8.58576 22.614 7.35517 18.9463H2.15771V22.9586C4.72025 28.0259 9.99009 31.4999 16.0852 31.4999Z" fill="#34A853"/>
<path d="M7.36238 18.9464C7.05111 18.0133 6.87738 17.0228 6.87738 15.9964C6.87738 14.97 7.05111 13.9795 7.36238 13.0465V9.03418H2.15768C1.10082 11.13 0.5 13.4915 0.5 15.9964C0.5 18.5014 1.10082 20.8628 2.15768 22.9587L7.35514 18.9464H7.36238Z" fill="#FBBC04"/>
<path d="M16.0852 6.66555C18.3726 6.66555 20.4284 7.4479 22.0499 8.98391L26.5163 4.54098C23.8162 2.036 20.2909 0.5 16.0852 0.5C9.99733 0.5 4.72749 3.97395 2.15771 9.04133L7.35517 13.0536C8.58576 9.38585 12.0242 6.66555 16.0852 6.66555Z" fill="#EA4335"/>
</svg>
