<?xml version="1.0" encoding="utf-8"?>
<!-- Generator: Adobe Illustrator 26.5.0, SVG Export Plug-In . SVG Version: 6.00 Build 0)  -->
<svg version="1.1" xmlns="http://www.w3.org/2000/svg" xmlns:xlink="http://www.w3.org/1999/xlink" x="0px" y="0px"
	 viewBox="0 0 1080 400" style="enable-background:new 0 0 1080 400;" xml:space="preserve">
<style type="text/css">
	.st0{display:none;}
	.st1{display:inline;}
	.st2{fill:none;stroke:#FFFFFF;stroke-width:33;stroke-miterlimit:10;}
	.st3{fill:none;stroke:#000000;stroke-width:29;stroke-linecap:round;stroke-linejoin:round;stroke-miterlimit:10;}
	.st4{fill:#FFFFFF;}
	.st5{fill:#FF5C35;}
	.st6{fill:#3E5A74;}
	.st7{fill:#B7ECED;}
	.st8{fill:#517090;}
	.st9{fill:#B7C7D6;}
	.st10{fill:none;}
	.st11{font-family:'Avenir-Medium';}
	.st12{font-size:32px;}
	.st13{font-family:'Avenir-Heavy';}
	.st14{font-size:42.2397px;}
</style>
<g id="Layer_1" class="st0">
	<g class="st1">
		<g>
			<path class="st6" d="M1028.5,330.5H242V94h786.4c6.6,0,10.7,7.1,7.3,12.6l-68.6,100.1c-2.2,3.2-2.2,7.3,0,10.5l68.7,100.6
				C1039.2,323.5,1035.1,330.5,1028.5,330.5z"/>
			<g>
				<polygon class="st4" points="468.3,148.3 468.3,174 444.6,174 444.6,148.3 433.4,148.3 433.4,209.7 444.6,209.7 444.6,184.8 
					468.3,184.8 468.3,209.7 479.5,209.7 479.5,148.3 				"/>
				<g>
					<path class="st4" d="M515.3,189.9c0,5.1-4.2,9.3-9.3,9.3c-5.1,0-9.3-4.2-9.3-9.3v-26.3h-10.6v26.3c0,11,8.9,19.9,19.9,19.9
						c11,0,19.9-8.9,19.9-19.9v-26.3h-10.6V189.9z"/>
					<path class="st4" d="M594.1,166.3c0-5.4,3.6-7.1,7.5-7.1c3.1,0,7.3,2.4,10,5.3l7-8.2c-3.5-4.7-10.5-8-16.3-8
						c-11.6,0-19.9,6.8-19.9,18c0,20.8,25.4,14.2,25.4,25.8c0,3.6-3.5,6.8-7.5,6.8c-6.3,0-8.3-3.1-11.2-6.3l-7.7,8
						c4.9,6.1,11,9.2,18.3,9.2c11,0,19.8-6.8,19.8-17.5C619.5,169.1,594.1,176.3,594.1,166.3"/>
					<path class="st4" d="M751.3,199.9c-6.3,0-8.1-2.7-8.1-6.9v-18.4h9.8v-9.3h-9.8v-12.3l-10.8,4.8v37.5c0,9.6,6.6,14.4,15.7,14.4
						c1.4,0,3.2-0.1,4.3-0.3l2.6-9.7C753.8,199.8,752.5,199.9,751.3,199.9"/>
					<path class="st4" d="M555.8,163.9c-5.3,0-8.9,1.5-12.5,5v-20.2h-10.7v37.4c0,14,10.1,23.6,21.5,23.6c12.7,0,23.7-9.8,23.7-22.9
						C577.9,173.8,567.7,163.9,555.8,163.9 M555.8,199c-6.7,0-12.1-5.4-12.1-12.1c0-6.7,5.4-12.1,12.1-12.1
						c6.7,0,12.1,5.4,12.1,12.1C567.8,193.6,562.4,199,555.8,199"/>
					<path class="st4" d="M671.5,186.3c0-13.2-11.1-22.9-23.7-22.9c-11.4,0-21.5,9.6-21.5,23.6v37.4h10.7v-20.2
						c3.5,3.5,7.2,5,12.5,5C661.2,209.2,671.5,199.3,671.5,186.3 M661.4,186.1c0,6.7-5.4,12.1-12.1,12.1c-6.7,0-12.1-5.4-12.1-12.1
						c0-6.7,5.4-12.1,12.1-12.1C655.9,174,661.4,179.5,661.4,186.1"/>
				</g>
				<g>
					<path class="st4" d="M705.9,162.8v-10.7c2.8-1.3,4.7-4.1,4.7-7.4v-0.2c0-4.5-3.7-8.2-8.2-8.2h-0.2c-4.5,0-8.2,3.7-8.2,8.2v0.2
						c0,3.3,2,6.1,4.8,7.4v10.7c-4.2,0.6-8,2.4-11.1,4.9l-29.4-22.9c0.2-0.7,0.3-1.5,0.3-2.3c0-5.1-4.1-9.3-9.3-9.3
						c-5.1,0-9.3,4.1-9.3,9.3c0,5.1,4.1,9.3,9.3,9.3c1.7,0,3.2-0.5,4.6-1.2l28.9,22.5c-2.5,3.7-3.9,8.2-3.9,12.9
						c0,5,1.6,9.6,4.3,13.5l-8.8,8.8c-0.7-0.2-1.4-0.4-2.2-0.4c-4.2,0-7.6,3.4-7.6,7.6s3.4,7.6,7.6,7.6c4.2,0,7.6-3.4,7.6-7.6
						c0-0.8-0.1-1.5-0.4-2.2l8.7-8.7c3.9,3,8.9,4.8,14.2,4.8c13,0,23.5-10.5,23.5-23.5C725.7,174.2,717.1,164.5,705.9,162.8
						 M702.3,198c-6.6,0-12-5.4-12-12s5.4-12,12-12c6.6,0,12,5.4,12,12S708.9,198,702.3,198"/>
				</g>
			</g>
			<rect x="433.4" y="256.9" class="st10" width="534.9" height="41.3"/>
			<text transform="matrix(1 0 0 1 433.4282 281.0511)" class="st4 st11 st12">Solutions Partner Program</text>
		</g>
		<g>
			<g>
				<path class="st4" d="M318.4,355.8H116.8c-28.5,0-51.5-23.1-51.5-51.5V102.7c0-28.5,23.1-51.5,51.5-51.5h201.6
					c28.5,0,51.5,23.1,51.5,51.5v201.6C369.9,332.8,346.9,355.8,318.4,355.8z"/>
				<path class="st6" d="M321.1,343.8H114.1c-20.3,0-36.7-16.4-36.7-36.7V100c0-20.3,16.4-36.7,36.7-36.7h207.1
					c20.3,0,36.7,16.4,36.7,36.7V307C357.8,327.3,341.4,343.8,321.1,343.8z"/>
				<rect x="101.9" y="87.8" class="st4" width="231.3" height="231.3"/>
			</g>
			<g>
				<path class="st4" d="M369.5,248.8H65.6c-11.3,0-20.5-9.2-20.5-20.5v-49.7c0-11.3,9.2-20.5,20.5-20.5h303.9
					c11.3,0,20.5,9.2,20.5,20.5v49.7C390,239.6,380.8,248.8,369.5,248.8z"/>
				<path class="st8" d="M371.7,237.8H64.9c-3.8,0-6.9-3.1-6.9-6.9v-54.5c0-3.8,3.1-6.9,6.9-6.9h306.8c3.8,0,6.9,3.1,6.9,6.9v54.5
					C378.6,234.7,375.5,237.8,371.7,237.8z"/>
				<rect x="57.4" y="186.2" class="st10" width="321" height="41.5"/>
				<text transform="matrix(1 0 0 1 133.8301 218.1533)" class="st4 st13 st14">Provider</text>
			</g>
			<path class="st9" d="M267.7,149.7h-40.5l33.3-19.1c0.9-0.5,1.2-1.6,0.7-2.4c-0.5-0.9-1.6-1.2-2.4-0.7l-34.5,19.7l20.8-35.2
				c0.5-0.9,0.2-2-0.6-2.5c-0.9-0.5-2-0.2-2.5,0.6l-20.4,34.5v-41.2c0-1-0.8-1.8-1.8-1.8c-1,0-1.8,0.8-1.8,1.8v43.1l-20.9-36.4
				c-0.5-0.9-1.6-1.2-2.4-0.7c-0.9,0.5-1.2,1.6-0.7,2.4l19.5,34l-33.2-18.5c-0.9-0.5-2-0.2-2.4,0.7c-0.5,0.9-0.2,2,0.7,2.4l34.1,19
				h-40.8c-1,0-1.8,0.8-1.8,1.8s0.8,1.8,1.8,1.8h95.9c1,0,1.8-0.8,1.8-1.8S268.7,149.7,267.7,149.7z"/>
			<path class="st9" d="M171.8,264.4h40.5L179,283.5c-0.9,0.5-1.2,1.6-0.7,2.4c0.5,0.9,1.6,1.2,2.4,0.7l34.5-19.7l-20.8,35.2
				c-0.5,0.9-0.2,2,0.6,2.5c0.9,0.5,2,0.2,2.5-0.6l20.4-34.5v41.2c0,1,0.8,1.8,1.8,1.8c1,0,1.8-0.8,1.8-1.8v-43.1l20.9,36.4
				c0.5,0.9,1.6,1.2,2.4,0.7c0.9-0.5,1.2-1.6,0.7-2.4l-19.5-34l33.2,18.5c0.9,0.5,2,0.2,2.4-0.7c0.5-0.9,0.2-2-0.7-2.4l-34.1-19
				h40.8c1,0,1.8-0.8,1.8-1.8s-0.8-1.8-1.8-1.8h-95.9c-1,0-1.8,0.8-1.8,1.8S170.8,264.4,171.8,264.4z"/>
		</g>
	</g>
</g>
<g id="Outlined">
	<g>
		<g>
			<path class="st6" d="M1028.5,330.5H242V94h786.4c6.6,0,10.7,7.1,7.3,12.6l-68.6,100.1c-2.2,3.2-2.2,7.3,0,10.5l68.7,100.6
				C1039.2,323.5,1035.1,330.5,1028.5,330.5z"/>
			<g>
				<polygon class="st4" points="468.3,148.3 468.3,174 444.6,174 444.6,148.3 433.4,148.3 433.4,209.7 444.6,209.7 444.6,184.8 
					468.3,184.8 468.3,209.7 479.5,209.7 479.5,148.3 				"/>
				<g>
					<path class="st4" d="M515.3,189.9c0,5.1-4.2,9.3-9.3,9.3c-5.1,0-9.3-4.2-9.3-9.3v-26.3h-10.6v26.3c0,11,8.9,19.9,19.9,19.9
						c11,0,19.9-8.9,19.9-19.9v-26.3h-10.6V189.9z"/>
					<path class="st4" d="M594.1,166.3c0-5.4,3.6-7.1,7.5-7.1c3.1,0,7.3,2.4,10,5.3l7-8.2c-3.5-4.7-10.5-8-16.3-8
						c-11.6,0-19.9,6.8-19.9,18c0,20.8,25.4,14.2,25.4,25.8c0,3.6-3.5,6.8-7.5,6.8c-6.3,0-8.3-3.1-11.2-6.3l-7.7,8
						c4.9,6.1,11,9.2,18.3,9.2c11,0,19.8-6.8,19.8-17.5C619.5,169.1,594.1,176.3,594.1,166.3"/>
					<path class="st4" d="M751.3,199.9c-6.3,0-8.1-2.7-8.1-6.9v-18.4h9.8v-9.3h-9.8v-12.3l-10.8,4.8v37.5c0,9.6,6.6,14.4,15.7,14.4
						c1.4,0,3.2-0.1,4.3-0.3l2.6-9.7C753.8,199.8,752.5,199.9,751.3,199.9"/>
					<path class="st4" d="M555.8,163.9c-5.3,0-8.9,1.5-12.5,5v-20.2h-10.7v37.4c0,14,10.1,23.6,21.5,23.6c12.7,0,23.7-9.8,23.7-22.9
						C577.9,173.8,567.7,163.9,555.8,163.9 M555.8,199c-6.7,0-12.1-5.4-12.1-12.1c0-6.7,5.4-12.1,12.1-12.1
						c6.7,0,12.1,5.4,12.1,12.1C567.8,193.6,562.4,199,555.8,199"/>
					<path class="st4" d="M671.5,186.3c0-13.2-11.1-22.9-23.7-22.9c-11.4,0-21.5,9.6-21.5,23.6v37.4h10.7v-20.2
						c3.5,3.5,7.2,5,12.5,5C661.2,209.2,671.5,199.3,671.5,186.3 M661.4,186.1c0,6.7-5.4,12.1-12.1,12.1c-6.7,0-12.1-5.4-12.1-12.1
						c0-6.7,5.4-12.1,12.1-12.1C655.9,174,661.4,179.5,661.4,186.1"/>
				</g>
				<g>
					<path class="st4" d="M705.9,162.8v-10.7c2.8-1.3,4.7-4.1,4.7-7.4v-0.2c0-4.5-3.7-8.2-8.2-8.2h-0.2c-4.5,0-8.2,3.7-8.2,8.2v0.2
						c0,3.3,2,6.1,4.8,7.4v10.7c-4.2,0.6-8,2.4-11.1,4.9l-29.4-22.9c0.2-0.7,0.3-1.5,0.3-2.3c0-5.1-4.1-9.3-9.3-9.3
						c-5.1,0-9.3,4.1-9.3,9.3c0,5.1,4.1,9.3,9.3,9.3c1.7,0,3.2-0.5,4.6-1.2l28.9,22.5c-2.5,3.7-3.9,8.2-3.9,12.9
						c0,5,1.6,9.6,4.3,13.5l-8.8,8.8c-0.7-0.2-1.4-0.4-2.2-0.4c-4.2,0-7.6,3.4-7.6,7.6s3.4,7.6,7.6,7.6c4.2,0,7.6-3.4,7.6-7.6
						c0-0.8-0.1-1.5-0.4-2.2l8.7-8.7c3.9,3,8.9,4.8,14.2,4.8c13,0,23.5-10.5,23.5-23.5C725.7,174.2,717.1,164.5,705.9,162.8
						 M702.3,198c-6.6,0-12-5.4-12-12s5.4-12,12-12c6.6,0,12,5.4,12,12S708.9,198,702.3,198"/>
				</g>
			</g>
			<g>
				<path class="st4" d="M437,276.3c0.6,0.8,1.3,1.4,2.1,1.8c0.9,0.4,1.8,0.6,2.7,0.6c0.5,0,1-0.1,1.6-0.2s1-0.4,1.5-0.7
					c0.4-0.3,0.8-0.7,1.1-1.2c0.3-0.5,0.4-1,0.4-1.6c0-0.9-0.3-1.5-0.8-2c-0.6-0.5-1.2-0.8-2.1-1.2c-0.8-0.3-1.7-0.6-2.7-0.9
					s-1.9-0.7-2.7-1.2c-0.8-0.5-1.5-1.2-2.1-2.1c-0.6-0.9-0.8-2-0.8-3.5c0-0.7,0.1-1.4,0.4-2.1c0.3-0.7,0.7-1.4,1.4-2
					c0.6-0.6,1.4-1.1,2.4-1.6s2.1-0.6,3.5-0.6c1.2,0,2.4,0.2,3.6,0.5c1.1,0.3,2.1,1,3,2.1l-2.5,2.3c-0.4-0.6-0.9-1.1-1.6-1.4
					c-0.7-0.4-1.5-0.5-2.4-0.5c-0.9,0-1.6,0.1-2.1,0.3c-0.6,0.2-1,0.5-1.4,0.9c-0.3,0.4-0.6,0.7-0.7,1.1s-0.2,0.8-0.2,1.1
					c0,1,0.3,1.7,0.8,2.2c0.6,0.5,1.2,0.9,2.1,1.2c0.8,0.3,1.7,0.6,2.7,0.9s1.9,0.6,2.7,1.1s1.5,1.1,2.1,1.9
					c0.6,0.8,0.8,1.9,0.8,3.2c0,1.1-0.2,2.1-0.6,2.9c-0.4,0.9-1,1.6-1.7,2.2c-0.7,0.6-1.5,1.1-2.5,1.4c-1,0.3-2,0.5-3.1,0.5
					c-1.5,0-2.8-0.3-4.1-0.8c-1.3-0.5-2.3-1.3-3.1-2.4L437,276.3z"/>
				<path class="st4" d="M464.5,281.6c-1.7,0-3.3-0.3-4.8-0.9c-1.5-0.6-2.7-1.4-3.7-2.5c-1-1.1-1.8-2.3-2.4-3.8
					c-0.6-1.5-0.9-3-0.9-4.7c0-1.7,0.3-3.3,0.9-4.7c0.6-1.5,1.4-2.7,2.4-3.8c1-1.1,2.3-1.9,3.7-2.5c1.5-0.6,3-0.9,4.8-0.9
					s3.3,0.3,4.8,0.9c1.5,0.6,2.7,1.4,3.7,2.5c1,1.1,1.8,2.3,2.4,3.8c0.6,1.5,0.9,3,0.9,4.7c0,1.7-0.3,3.3-0.9,4.7
					c-0.6,1.5-1.4,2.7-2.4,3.8c-1,1.1-2.3,1.9-3.7,2.5C467.8,281.3,466.3,281.6,464.5,281.6z M464.5,278.7c1.3,0,2.5-0.2,3.5-0.7
					c1-0.5,1.9-1.1,2.7-1.9c0.7-0.8,1.3-1.8,1.7-2.9c0.4-1.1,0.6-2.3,0.6-3.5s-0.2-2.4-0.6-3.5c-0.4-1.1-1-2.1-1.7-2.9
					c-0.7-0.8-1.6-1.5-2.7-1.9c-1-0.5-2.2-0.7-3.5-0.7c-1.3,0-2.5,0.2-3.5,0.7c-1,0.5-1.9,1.1-2.7,1.9c-0.7,0.8-1.3,1.8-1.7,2.9
					s-0.6,2.3-0.6,3.5s0.2,2.4,0.6,3.5c0.4,1.1,1,2.1,1.7,2.9c0.7,0.8,1.6,1.5,2.7,1.9C462.1,278.5,463.2,278.7,464.5,278.7z"/>
				<path class="st4" d="M480.8,258.4h3.1v19.8h10.4v2.9h-13.5V258.4z"/>
				<path class="st4" d="M500,258.4v13.9c0,0.7,0.1,1.4,0.3,2.2c0.2,0.8,0.5,1.5,1,2.1c0.4,0.6,1,1.2,1.8,1.6
					c0.7,0.4,1.6,0.6,2.7,0.6c1.1,0,2-0.2,2.7-0.6s1.3-0.9,1.8-1.6c0.4-0.6,0.8-1.3,1-2.1c0.2-0.8,0.3-1.5,0.3-2.2v-13.9h3.1v14.4
					c0,1.3-0.2,2.5-0.7,3.6c-0.4,1.1-1.1,2-1.9,2.8s-1.7,1.4-2.8,1.8c-1.1,0.4-2.2,0.6-3.5,0.6s-2.4-0.2-3.5-0.6
					c-1.1-0.4-2-1-2.8-1.8s-1.4-1.7-1.9-2.8c-0.4-1.1-0.7-2.3-0.7-3.6v-14.4H500z"/>
				<path class="st4" d="M524.6,261.3h-7.3v-2.9H535v2.9h-7.3v19.8h-3.1V261.3z"/>
				<path class="st4" d="M538.3,258.4h3.1v22.7h-3.1V258.4z"/>
				<path class="st4" d="M557.6,281.6c-1.7,0-3.3-0.3-4.8-0.9c-1.5-0.6-2.7-1.4-3.7-2.5c-1-1.1-1.8-2.3-2.4-3.8
					c-0.6-1.5-0.9-3-0.9-4.7c0-1.7,0.3-3.3,0.9-4.7c0.6-1.5,1.4-2.7,2.4-3.8c1-1.1,2.3-1.9,3.7-2.5c1.5-0.6,3-0.9,4.8-0.9
					c1.7,0,3.3,0.3,4.8,0.9c1.5,0.6,2.7,1.4,3.7,2.5s1.8,2.3,2.4,3.8c0.6,1.5,0.9,3,0.9,4.7c0,1.7-0.3,3.3-0.9,4.7
					c-0.6,1.5-1.4,2.7-2.4,3.8s-2.3,1.9-3.7,2.5C560.9,281.3,559.3,281.6,557.6,281.6z M557.6,278.7c1.3,0,2.5-0.2,3.5-0.7
					c1-0.5,1.9-1.1,2.7-1.9c0.7-0.8,1.3-1.8,1.7-2.9c0.4-1.1,0.6-2.3,0.6-3.5s-0.2-2.4-0.6-3.5s-1-2.1-1.7-2.9
					c-0.7-0.8-1.6-1.5-2.7-1.9c-1-0.5-2.2-0.7-3.5-0.7c-1.3,0-2.5,0.2-3.5,0.7c-1,0.5-1.9,1.1-2.7,1.9c-0.7,0.8-1.3,1.8-1.7,2.9
					s-0.6,2.3-0.6,3.5s0.2,2.4,0.6,3.5c0.4,1.1,1,2.1,1.7,2.9c0.7,0.8,1.6,1.5,2.7,1.9C555.1,278.5,556.3,278.7,557.6,278.7z"/>
				<path class="st4" d="M573.8,258.4h4l12.5,18.6h0.1v-18.6h3.1v22.7h-3.9l-12.6-18.6h-0.1v18.6h-3.1V258.4z"/>
				<path class="st4" d="M599.9,276.3c0.6,0.8,1.3,1.4,2.1,1.8c0.9,0.4,1.8,0.6,2.7,0.6c0.5,0,1-0.1,1.6-0.2s1-0.4,1.5-0.7
					c0.4-0.3,0.8-0.7,1.1-1.2c0.3-0.5,0.4-1,0.4-1.6c0-0.9-0.3-1.5-0.8-2c-0.6-0.5-1.2-0.8-2.1-1.2c-0.8-0.3-1.7-0.6-2.7-0.9
					s-1.9-0.7-2.7-1.2c-0.8-0.5-1.5-1.2-2.1-2.1c-0.6-0.9-0.8-2-0.8-3.5c0-0.7,0.1-1.4,0.4-2.1c0.3-0.7,0.7-1.4,1.4-2
					c0.6-0.6,1.4-1.1,2.4-1.6s2.1-0.6,3.5-0.6c1.2,0,2.4,0.2,3.6,0.5c1.1,0.3,2.1,1,3,2.1l-2.5,2.3c-0.4-0.6-0.9-1.1-1.6-1.4
					c-0.7-0.4-1.5-0.5-2.4-0.5c-0.9,0-1.6,0.1-2.1,0.3c-0.6,0.2-1,0.5-1.4,0.9c-0.3,0.4-0.6,0.7-0.7,1.1s-0.2,0.8-0.2,1.1
					c0,1,0.3,1.7,0.8,2.2c0.6,0.5,1.2,0.9,2.1,1.2c0.8,0.3,1.7,0.6,2.7,0.9s1.9,0.6,2.7,1.1s1.5,1.1,2.1,1.9
					c0.6,0.8,0.8,1.9,0.8,3.2c0,1.1-0.2,2.1-0.6,2.9c-0.4,0.9-1,1.6-1.7,2.2c-0.7,0.6-1.5,1.1-2.5,1.4c-1,0.3-2,0.5-3.1,0.5
					c-1.5,0-2.8-0.3-4.1-0.8c-1.3-0.5-2.3-1.3-3.1-2.4L599.9,276.3z"/>
				<path class="st4" d="M625.9,258.4h8c1.5,0,2.6,0.2,3.6,0.6c0.9,0.4,1.7,0.9,2.2,1.5c0.5,0.6,0.9,1.3,1.1,2
					c0.2,0.8,0.3,1.5,0.3,2.2s-0.1,1.4-0.3,2.2c-0.2,0.8-0.6,1.4-1.1,2c-0.5,0.6-1.3,1.1-2.2,1.5c-0.9,0.4-2.1,0.6-3.6,0.6H629v10
					h-3.1V258.4z M629,268.4h4c0.6,0,1.2,0,1.8-0.1c0.6-0.1,1.1-0.3,1.6-0.5c0.5-0.3,0.8-0.6,1.1-1.1c0.3-0.5,0.4-1.1,0.4-1.9
					c0-0.8-0.1-1.4-0.4-1.9c-0.3-0.5-0.6-0.8-1.1-1.1c-0.5-0.3-1-0.4-1.6-0.5c-0.6-0.1-1.2-0.1-1.8-0.1h-4V268.4z"/>
				<path class="st4" d="M649.7,258.4h2.8l9.7,22.7h-3.6l-2.3-5.6h-10.8l-2.2,5.6h-3.6L649.7,258.4z M655.2,272.8l-4.2-10.4h-0.1
					l-4.3,10.4H655.2z"/>
				<path class="st4" d="M665.1,258.4h8c1.5,0,2.6,0.2,3.6,0.6c0.9,0.4,1.7,0.9,2.2,1.5c0.5,0.6,0.9,1.3,1.1,2
					c0.2,0.8,0.3,1.5,0.3,2.2c0,0.7-0.1,1.4-0.4,2.1c-0.3,0.7-0.6,1.3-1.1,1.8c-0.5,0.5-1.1,1-1.8,1.4c-0.7,0.4-1.5,0.6-2.3,0.7
					l6.4,10.3h-3.8l-5.8-10h-3.4v10h-3.1V258.4z M668.1,268.4h4c0.6,0,1.2,0,1.8-0.1c0.6-0.1,1.1-0.3,1.6-0.5
					c0.5-0.3,0.8-0.6,1.1-1.1c0.3-0.5,0.4-1.1,0.4-1.9c0-0.8-0.1-1.4-0.4-1.9c-0.3-0.5-0.6-0.8-1.1-1.1c-0.5-0.3-1-0.4-1.6-0.5
					c-0.6-0.1-1.2-0.1-1.8-0.1h-4V268.4z"/>
				<path class="st4" d="M688.8,261.3h-7.3v-2.9h17.7v2.9h-7.3v19.8h-3.1V261.3z"/>
				<path class="st4" d="M702.4,258.4h4l12.5,18.6h0.1v-18.6h3.1v22.7h-3.9l-12.6-18.6h-0.1v18.6h-3.1V258.4z"/>
				<path class="st4" d="M727.9,258.4h14.6v2.9H731v6.8h10.8v2.9H731v7.3h12.1v2.9h-15.2V258.4z"/>
				<path class="st4" d="M747.4,258.4h8c1.5,0,2.6,0.2,3.6,0.6c0.9,0.4,1.7,0.9,2.2,1.5c0.5,0.6,0.9,1.3,1.1,2
					c0.2,0.8,0.3,1.5,0.3,2.2c0,0.7-0.1,1.4-0.4,2.1c-0.3,0.7-0.6,1.3-1.1,1.8c-0.5,0.5-1.1,1-1.8,1.4c-0.7,0.4-1.5,0.6-2.3,0.7
					l6.4,10.3h-3.8l-5.8-10h-3.4v10h-3.1V258.4z M750.5,268.4h4c0.6,0,1.2,0,1.8-0.1c0.6-0.1,1.1-0.3,1.6-0.5
					c0.5-0.3,0.8-0.6,1.1-1.1c0.3-0.5,0.4-1.1,0.4-1.9c0-0.8-0.1-1.4-0.4-1.9c-0.3-0.5-0.6-0.8-1.1-1.1c-0.5-0.3-1-0.4-1.6-0.5
					c-0.6-0.1-1.2-0.1-1.8-0.1h-4V268.4z"/>
				<path class="st4" d="M775.9,258.4h8c1.5,0,2.6,0.2,3.6,0.6c0.9,0.4,1.7,0.9,2.2,1.5c0.5,0.6,0.9,1.3,1.1,2s0.3,1.5,0.3,2.2
					s-0.1,1.4-0.3,2.2c-0.2,0.8-0.6,1.4-1.1,2s-1.3,1.1-2.2,1.5c-0.9,0.4-2.1,0.6-3.6,0.6H779v10h-3.1V258.4z M779,268.4h4
					c0.6,0,1.2,0,1.8-0.1c0.6-0.1,1.1-0.3,1.6-0.5s0.8-0.6,1.1-1.1c0.3-0.5,0.4-1.1,0.4-1.9c0-0.8-0.1-1.4-0.4-1.9
					c-0.3-0.5-0.6-0.8-1.1-1.1s-1-0.4-1.6-0.5c-0.6-0.1-1.2-0.1-1.8-0.1h-4V268.4z"/>
				<path class="st4" d="M794.9,258.4h8c1.5,0,2.6,0.2,3.6,0.6c0.9,0.4,1.7,0.9,2.2,1.5c0.5,0.6,0.9,1.3,1.1,2
					c0.2,0.8,0.3,1.5,0.3,2.2c0,0.7-0.1,1.4-0.4,2.1c-0.3,0.7-0.6,1.3-1.1,1.8c-0.5,0.5-1.1,1-1.8,1.4c-0.7,0.4-1.5,0.6-2.3,0.7
					l6.4,10.3h-3.8l-5.8-10h-3.4v10h-3.1V258.4z M797.9,268.4h4c0.6,0,1.2,0,1.8-0.1c0.6-0.1,1.1-0.3,1.6-0.5s0.8-0.6,1.1-1.1
					c0.3-0.5,0.4-1.1,0.4-1.9c0-0.8-0.1-1.4-0.4-1.9c-0.3-0.5-0.6-0.8-1.1-1.1s-1-0.4-1.6-0.5c-0.6-0.1-1.2-0.1-1.8-0.1h-4V268.4z"
					/>
				<path class="st4" d="M824.8,281.6c-1.7,0-3.3-0.3-4.8-0.9c-1.5-0.6-2.7-1.4-3.7-2.5s-1.8-2.3-2.4-3.8c-0.6-1.5-0.9-3-0.9-4.7
					c0-1.7,0.3-3.3,0.9-4.7c0.6-1.5,1.4-2.7,2.4-3.8s2.3-1.9,3.7-2.5c1.5-0.6,3-0.9,4.8-0.9s3.3,0.3,4.8,0.9
					c1.5,0.6,2.7,1.4,3.7,2.5c1,1.1,1.8,2.3,2.4,3.8c0.6,1.5,0.9,3,0.9,4.7c0,1.7-0.3,3.3-0.9,4.7c-0.6,1.5-1.4,2.7-2.4,3.8
					c-1,1.1-2.3,1.9-3.7,2.5S826.5,281.6,824.8,281.6z M824.8,278.7c1.3,0,2.5-0.2,3.5-0.7c1-0.5,1.9-1.1,2.7-1.9s1.3-1.8,1.7-2.9
					c0.4-1.1,0.6-2.3,0.6-3.5s-0.2-2.4-0.6-3.5s-1-2.1-1.7-2.9c-0.7-0.8-1.6-1.5-2.7-1.9c-1-0.5-2.2-0.7-3.5-0.7s-2.5,0.2-3.5,0.7
					c-1,0.5-1.9,1.1-2.7,1.9c-0.7,0.8-1.3,1.8-1.7,2.9c-0.4,1.1-0.6,2.3-0.6,3.5s0.2,2.4,0.6,3.5c0.4,1.1,1,2.1,1.7,2.9
					s1.6,1.5,2.7,1.9C822.3,278.5,823.5,278.7,824.8,278.7z"/>
				<path class="st4" d="M860.3,268.4v11.2c-0.6,0.3-1.2,0.6-1.9,0.9c-0.7,0.3-1.4,0.5-2.2,0.7c-0.8,0.2-1.5,0.3-2.3,0.4
					c-0.8,0.1-1.5,0.1-2.2,0.1c-1.9,0-3.6-0.3-5.1-1c-1.5-0.6-2.8-1.5-3.8-2.6c-1-1.1-1.8-2.4-2.4-3.8c-0.5-1.4-0.8-3-0.8-4.6
					c0-1.7,0.3-3.3,0.9-4.7c0.6-1.5,1.4-2.7,2.4-3.8s2.3-1.9,3.7-2.5c1.5-0.6,3-0.9,4.8-0.9c2.1,0,3.8,0.3,5.1,0.8
					c1.3,0.5,2.4,1.2,3.3,2.2l-2.2,2.3c-0.9-0.9-1.9-1.5-3-1.9c-1-0.4-2.1-0.5-3.3-0.5c-1.3,0-2.5,0.2-3.5,0.7
					c-1,0.5-1.9,1.1-2.7,1.9c-0.7,0.8-1.3,1.8-1.7,2.9c-0.4,1.1-0.6,2.3-0.6,3.5c0,1.3,0.2,2.5,0.7,3.6c0.4,1.1,1.1,2.1,1.9,2.9
					c0.8,0.8,1.7,1.4,2.8,1.9c1.1,0.5,2.2,0.7,3.5,0.7c1.1,0,2.1-0.1,3.1-0.3c1-0.2,1.8-0.5,2.5-0.9v-6.3h-5v-2.9H860.3z"/>
				<path class="st4" d="M865.9,258.4h8c1.5,0,2.6,0.2,3.6,0.6c0.9,0.4,1.7,0.9,2.2,1.5c0.5,0.6,0.9,1.3,1.1,2s0.3,1.5,0.3,2.2
					c0,0.7-0.1,1.4-0.4,2.1c-0.3,0.7-0.6,1.3-1.1,1.8s-1.1,1-1.8,1.4c-0.7,0.4-1.5,0.6-2.3,0.7l6.4,10.3h-3.8l-5.8-10H869v10h-3.1
					V258.4z M869,268.4h4c0.6,0,1.2,0,1.8-0.1c0.6-0.1,1.1-0.3,1.6-0.5c0.5-0.3,0.8-0.6,1.1-1.1c0.3-0.5,0.4-1.1,0.4-1.9
					c0-0.8-0.1-1.4-0.4-1.9c-0.3-0.5-0.6-0.8-1.1-1.1c-0.5-0.3-1-0.4-1.6-0.5c-0.6-0.1-1.2-0.1-1.8-0.1h-4V268.4z"/>
				<path class="st4" d="M892.6,258.4h2.8l9.7,22.7h-3.6l-2.3-5.6h-10.8l-2.2,5.6h-3.6L892.6,258.4z M898.1,272.8l-4.2-10.4h-0.1
					l-4.3,10.4H898.1z"/>
				<path class="st4" d="M907.8,258.4h4.6l7.2,17.2h0.1l7.1-17.2h4.6v22.7h-3.1v-18.6h-0.1l-7.6,18.6h-2l-7.6-18.6h-0.1v18.6h-3.1
					V258.4z"/>
			</g>
		</g>
		<g>
			<g>
				<path class="st4" d="M318.4,355.8H116.8c-28.5,0-51.5-23.1-51.5-51.5V102.7c0-28.5,23.1-51.5,51.5-51.5h201.6
					c28.5,0,51.5,23.1,51.5,51.5v201.6C369.9,332.8,346.9,355.8,318.4,355.8z"/>
				<path class="st6" d="M321.1,343.8H114.1c-20.3,0-36.7-16.4-36.7-36.7V100c0-20.3,16.4-36.7,36.7-36.7h207.1
					c20.3,0,36.7,16.4,36.7,36.7V307C357.8,327.3,341.4,343.8,321.1,343.8z"/>
				<rect x="101.9" y="87.8" class="st4" width="231.3" height="231.3"/>
			</g>
			<g>
				<path class="st4" d="M369.5,248.8H65.6c-11.3,0-20.5-9.2-20.5-20.5v-49.7c0-11.3,9.2-20.5,20.5-20.5h303.9
					c11.3,0,20.5,9.2,20.5,20.5v49.7C390,239.6,380.8,248.8,369.5,248.8z"/>
				<path class="st8" d="M371.7,237.8H64.9c-3.8,0-6.9-3.1-6.9-6.9v-54.5c0-3.8,3.1-6.9,6.9-6.9h306.8c3.8,0,6.9,3.1,6.9,6.9v54.5
					C378.6,234.7,375.5,237.8,371.7,237.8z"/>
				<g>
					<path class="st4" d="M137.5,188.2h10.1c1.4,0,2.8,0.1,4.2,0.4c1.3,0.3,2.5,0.8,3.5,1.4c1,0.7,1.8,1.5,2.4,2.7
						c0.6,1.1,0.9,2.5,0.9,4.2c0,1.9-0.3,3.4-1,4.6c-0.6,1.2-1.5,2-2.6,2.7c-1.1,0.6-2.4,1.1-3.8,1.3c-1.5,0.2-3,0.3-4.5,0.3h-3.8
						v12.4h-5.3V188.2z M146.1,201.2c0.8,0,1.5,0,2.4-0.1s1.6-0.2,2.3-0.5c0.7-0.3,1.3-0.7,1.7-1.3c0.4-0.6,0.7-1.4,0.7-2.4
						c0-0.9-0.2-1.7-0.6-2.2c-0.4-0.5-0.9-1-1.5-1.3c-0.6-0.3-1.3-0.5-2.1-0.6c-0.8-0.1-1.5-0.1-2.2-0.1h-3.8v8.4H146.1z"/>
					<path class="st4" d="M162.9,197.9h5.1v3.2h0.1c0.6-1.2,1.4-2.1,2.4-2.7c1-0.6,2.2-1,3.6-1c0.3,0,0.6,0,0.9,0.1s0.6,0.1,0.9,0.2
						v4.9c-0.4-0.1-0.8-0.2-1.2-0.3c-0.4-0.1-0.8-0.1-1.2-0.1c-1.2,0-2.1,0.2-2.9,0.7c-0.7,0.4-1.3,0.9-1.6,1.5
						c-0.4,0.6-0.6,1.1-0.8,1.7c-0.1,0.6-0.2,1-0.2,1.3v10.9h-5.1V197.9z"/>
					<path class="st4" d="M177.5,208c0-1.6,0.3-3.1,0.9-4.4c0.6-1.3,1.4-2.4,2.3-3.4c1-0.9,2.2-1.6,3.5-2.2c1.4-0.5,2.8-0.8,4.3-0.8
						s3,0.3,4.3,0.8s2.5,1.2,3.5,2.2c1,0.9,1.8,2,2.3,3.4c0.6,1.3,0.9,2.8,0.9,4.4c0,1.6-0.3,3.1-0.9,4.4c-0.6,1.3-1.4,2.4-2.3,3.4
						c-1,0.9-2.2,1.6-3.5,2.2c-1.4,0.5-2.8,0.8-4.3,0.8s-3-0.3-4.3-0.8c-1.4-0.5-2.5-1.2-3.5-2.2c-1-0.9-1.8-2-2.3-3.4
						C177.8,211.1,177.5,209.6,177.5,208z M182.6,208c0,0.8,0.1,1.5,0.4,2.3s0.7,1.4,1.2,1.9c0.5,0.6,1.1,1,1.9,1.4s1.6,0.5,2.5,0.5
						c0.9,0,1.8-0.2,2.5-0.5s1.4-0.8,1.9-1.4c0.5-0.6,0.9-1.2,1.2-1.9s0.4-1.5,0.4-2.3c0-0.8-0.1-1.5-0.4-2.3
						c-0.3-0.7-0.7-1.4-1.2-1.9c-0.5-0.6-1.1-1-1.9-1.4s-1.6-0.5-2.5-0.5c-0.9,0-1.8,0.2-2.5,0.5s-1.4,0.8-1.9,1.4
						c-0.5,0.6-0.9,1.2-1.2,1.9C182.8,206.5,182.6,207.2,182.6,208z"/>
					<path class="st4" d="M201.6,197.9h5.5l5.4,14.2h0.1l5.4-14.2h5.2l-8,20.3h-5.4L201.6,197.9z"/>
					<path class="st4" d="M225.6,191c0-0.8,0.3-1.5,0.9-2.1s1.4-0.9,2.3-0.9c0.9,0,1.7,0.3,2.3,0.9c0.6,0.6,1,1.3,1,2.2
						c0,0.9-0.3,1.6-1,2.2s-1.4,0.9-2.3,0.9c-0.9,0-1.7-0.3-2.3-0.9C225.9,192.5,225.6,191.8,225.6,191z M226.3,197.9h5.1v20.3h-5.1
						V197.9z"/>
					<path class="st4" d="M253.3,215.1L253.3,215.1c-0.8,1.2-1.8,2.1-3,2.7c-1.2,0.6-2.6,0.8-4,0.8c-1.6,0-3-0.3-4.2-0.8
						c-1.2-0.5-2.3-1.3-3.1-2.3s-1.5-2.1-2-3.4c-0.5-1.3-0.7-2.7-0.7-4.2c0-1.5,0.2-2.9,0.7-4.2c0.5-1.3,1.1-2.4,2-3.4
						c0.9-1,1.9-1.7,3.1-2.3c1.2-0.5,2.5-0.8,4-0.8c1,0,1.8,0.1,2.5,0.3c0.7,0.2,1.4,0.5,1.9,0.8c0.6,0.3,1,0.6,1.4,1
						c0.4,0.4,0.7,0.7,1,1h0.1v-14.2h5.1v31.9h-4.8V215.1z M241.3,208c0,0.8,0.1,1.5,0.4,2.3s0.7,1.4,1.2,1.9c0.5,0.6,1.1,1,1.9,1.4
						s1.6,0.5,2.5,0.5c0.9,0,1.8-0.2,2.5-0.5s1.4-0.8,1.9-1.4c0.5-0.6,0.9-1.2,1.2-1.9s0.4-1.5,0.4-2.3c0-0.8-0.1-1.5-0.4-2.3
						c-0.3-0.7-0.7-1.4-1.2-1.9c-0.5-0.6-1.1-1-1.9-1.4s-1.6-0.5-2.5-0.5c-0.9,0-1.8,0.2-2.5,0.5s-1.4,0.8-1.9,1.4
						c-0.5,0.6-0.9,1.2-1.2,1.9C241.4,206.5,241.3,207.2,241.3,208z"/>
					<path class="st4" d="M267.9,209.8c0.2,1.5,0.8,2.7,1.8,3.5s2.2,1.3,3.7,1.3c1.3,0,2.3-0.3,3.2-0.8c0.9-0.5,1.6-1.2,2.3-2
						l3.6,2.7c-1.2,1.5-2.5,2.5-4,3.1c-1.5,0.6-3,0.9-4.6,0.9c-1.5,0-3-0.3-4.3-0.8c-1.4-0.5-2.5-1.2-3.5-2.2c-1-0.9-1.8-2-2.3-3.4
						c-0.6-1.3-0.9-2.8-0.9-4.4c0-1.6,0.3-3.1,0.9-4.4c0.6-1.3,1.4-2.4,2.3-3.4c1-0.9,2.2-1.6,3.5-2.2c1.4-0.5,2.8-0.8,4.3-0.8
						c1.4,0,2.7,0.2,3.9,0.7c1.2,0.5,2.2,1.2,3,2.1c0.8,0.9,1.5,2.1,1.9,3.4c0.5,1.4,0.7,2.9,0.7,4.7v1.4H267.9z M278.3,206
						c0-1.5-0.5-2.7-1.4-3.5c-0.9-0.9-2.2-1.3-3.8-1.3c-1.5,0-2.7,0.4-3.6,1.3c-0.9,0.9-1.4,2-1.6,3.5H278.3z"/>
					<path class="st4" d="M288.1,197.9h5.1v3.2h0.1c0.6-1.2,1.4-2.1,2.4-2.7c1-0.6,2.2-1,3.6-1c0.3,0,0.6,0,0.9,0.1s0.6,0.1,0.9,0.2
						v4.9c-0.4-0.1-0.8-0.2-1.2-0.3c-0.4-0.1-0.8-0.1-1.2-0.1c-1.2,0-2.1,0.2-2.9,0.7c-0.7,0.4-1.3,0.9-1.6,1.5
						c-0.4,0.6-0.6,1.1-0.8,1.7c-0.1,0.6-0.2,1-0.2,1.3v10.9h-5.1V197.9z"/>
				</g>
			</g>
			<path class="st9" d="M267.7,149.7h-40.5l33.3-19.1c0.9-0.5,1.2-1.6,0.7-2.4c-0.5-0.9-1.6-1.2-2.4-0.7l-34.5,19.7l20.8-35.2
				c0.5-0.9,0.2-2-0.6-2.5c-0.9-0.5-2-0.2-2.5,0.6l-20.4,34.5v-41.2c0-1-0.8-1.8-1.8-1.8c-1,0-1.8,0.8-1.8,1.8v43.1l-20.9-36.4
				c-0.5-0.9-1.6-1.2-2.4-0.7c-0.9,0.5-1.2,1.6-0.7,2.4l19.5,34l-33.2-18.5c-0.9-0.5-2-0.2-2.4,0.7c-0.5,0.9-0.2,2,0.7,2.4l34.1,19
				h-40.8c-1,0-1.8,0.8-1.8,1.8s0.8,1.8,1.8,1.8h95.9c1,0,1.8-0.8,1.8-1.8S268.7,149.7,267.7,149.7z"/>
			<path class="st9" d="M171.8,264.4h40.5L179,283.5c-0.9,0.5-1.2,1.6-0.7,2.4c0.5,0.9,1.6,1.2,2.4,0.7l34.5-19.7l-20.8,35.2
				c-0.5,0.9-0.2,2,0.6,2.5c0.9,0.5,2,0.2,2.5-0.6l20.4-34.5v41.2c0,1,0.8,1.8,1.8,1.8c1,0,1.8-0.8,1.8-1.8v-43.1l20.9,36.4
				c0.5,0.9,1.6,1.2,2.4,0.7c0.9-0.5,1.2-1.6,0.7-2.4l-19.5-34l33.2,18.5c0.9,0.5,2,0.2,2.4-0.7c0.5-0.9,0.2-2-0.7-2.4l-34.1-19
				h40.8c1,0,1.8-0.8,1.8-1.8s-0.8-1.8-1.8-1.8h-95.9c-1,0-1.8,0.8-1.8,1.8S170.8,264.4,171.8,264.4z"/>
		</g>
	</g>
</g>
</svg>
