<svg width="37" height="36" viewBox="0 0 37 36" fill="none" xmlns="http://www.w3.org/2000/svg">
<path d="M26.1676 9H10.8289C10.0941 9 9.5 9.58008 9.5 10.2973V25.6992C9.5 26.4164 10.0941 27 10.8289 27H26.1676C26.9023 27 27.5 26.4164 27.5 25.7027V10.2973C27.5 9.58008 26.9023 9 26.1676 9ZM14.8402 24.3387H12.1684V15.7465H14.8402V24.3387ZM13.5043 14.5758C12.6465 14.5758 11.9539 13.8832 11.9539 13.0289C11.9539 12.1746 12.6465 11.482 13.5043 11.482C14.3586 11.482 15.0512 12.1746 15.0512 13.0289C15.0512 13.8797 14.3586 14.5758 13.5043 14.5758ZM24.8387 24.3387H22.1703V20.1621C22.1703 19.1672 22.1527 17.884 20.7816 17.884C19.393 17.884 19.182 18.9703 19.182 20.0918V24.3387H16.5172V15.7465H19.0766V16.9207H19.1117C19.4668 16.2457 20.3387 15.532 21.6359 15.532C24.3395 15.532 24.8387 17.3109 24.8387 19.6242V24.3387Z" fill="#ECF2C0"/>
<circle cx="18.5" cy="18" r="17.5" stroke="#ECF2C0"/>
</svg>
