<svg width="37" height="36" viewBox="0 0 37 36" fill="none" xmlns="http://www.w3.org/2000/svg">
<path fill-rule="evenodd" clip-rule="evenodd" d="M14.5 10C12.0147 10 10 12.0147 10 14.5V21.5C10 23.9853 12.0147 26 14.5 26H22.5C24.9853 26 27 23.9853 27 21.5V14.5C27 12.0147 24.9853 10 22.5 10H14.5ZM11.5 14.5C11.5 12.8431 12.8431 11.5 14.5 11.5H22.5C24.1569 11.5 25.5 12.8431 25.5 14.5V21.5C25.5 23.1569 24.1569 24.5 22.5 24.5H14.5C12.8431 24.5 11.5 23.1569 11.5 21.5V14.5Z" fill="#ECF2C0"/>
<path fill-rule="evenodd" clip-rule="evenodd" d="M18.5 15C16.567 15 15 16.567 15 18.5C15 20.433 16.567 22 18.5 22C20.433 22 22 20.433 22 18.5C22 16.567 20.433 15 18.5 15ZM16.5 18.5C16.5 17.3954 17.3954 16.5 18.5 16.5C19.6046 16.5 20.5 17.3954 20.5 18.5C20.5 19.6046 19.6046 20.5 18.5 20.5C17.3954 20.5 16.5 19.6046 16.5 18.5Z" fill="#ECF2C0"/>
<circle cx="23" cy="13" r="1" fill="#ECF2C0"/>
<circle cx="18.5" cy="18" r="17.5" stroke="#ECF2C0"/>
</svg>
