<svg width="37" height="36" viewBox="0 0 37 36" fill="none" xmlns="http://www.w3.org/2000/svg">
<path d="M10.5 14.25L16.6237 18.5366C17.1196 18.8837 17.3675 19.0573 17.6372 19.1245C17.8754 19.1839 18.1246 19.1839 18.3628 19.1245C18.6325 19.0573 18.8804 18.8837 19.3763 18.5366L25.5 14.25M14.1 24H21.9C23.1601 24 23.7902 24 24.2715 23.7548C24.6948 23.539 25.039 23.1948 25.2548 22.7715C25.5 22.2902 25.5 21.6601 25.5 20.4V15.6C25.5 14.3399 25.5 13.7098 25.2548 13.2285C25.039 12.8052 24.6948 12.461 24.2715 12.2452C23.7902 12 23.1601 12 21.9 12H14.1C12.8399 12 12.2098 12 11.7285 12.2452C11.3052 12.461 10.961 12.8052 10.7452 13.2285C10.5 13.7098 10.5 14.3399 10.5 15.6V20.4C10.5 21.6601 10.5 22.2902 10.7452 22.7715C10.961 23.1948 11.3052 23.539 11.7285 23.7548C12.2098 24 12.8399 24 14.1 24Z" stroke="#ECF2C0" stroke-width="2" stroke-linecap="round" stroke-linejoin="round"/>
<circle cx="18.5" cy="18" r="17.5" stroke="#ECF2C0"/>
</svg>
