<?xml version="1.0" encoding="utf-8"?>
<!-- Generator: Adobe Illustrator 28.2.0, SVG Export Plug-In . SVG Version: 6.00 Build 0)  -->
<svg version="1.1" id="Logo" xmlns="http://www.w3.org/2000/svg" xmlns:xlink="http://www.w3.org/1999/xlink" x="0px" y="0px"
	 viewBox="0 0 1269.1 153.9" style="enable-background:new 0 0 1269.1 153.9;" xml:space="preserve">
	<title id="logo_bonaparteTitle">Bonaparte | Digital Strategist</title>
	<desc id="logo_bonaparteDesc">Logo for Bonaparte. A digital marketing agency</desc>
<style type="text/css">
	.st0{fill:#EC8602;}
	.st1{fill:#FFFFFF;}
</style>
<g id="layer3">
	<g id="g1">
		<path id="path18" class="st0" d="M1210.9,77c0,5.3,4.3,9.6,9.6,9.6c5.3,0,9.6-4.3,9.6-9.6c0-5.3-4.3-9.6-9.6-9.6c0,0,0,0,0,0
			C1215.2,67.4,1210.9,71.7,1210.9,77z"/>
		<path id="path20" class="st0" d="M799.2,91.7c-5.2,0-9.4,4.2-9.4,9.4s4.2,9.4,9.4,9.4c5.2,0,9.4-4.2,9.4-9.4l0,0
			C808.6,95.9,804.4,91.6,799.2,91.7z"/>
		<path id="path19" class="st0" d="M528.8,91.7c-5.2,0-9.4,4.2-9.4,9.4s4.2,9.4,9.4,9.4s9.4-4.2,9.4-9.4S534,91.6,528.8,91.7
			C528.8,91.6,528.8,91.6,528.8,91.7z"/>
		<path id="path22" class="st0" d="M206.9,67.2c-5.4,0-9.7,4.3-9.7,9.7s4.4,9.7,9.7,9.7s9.7-4.3,9.7-9.7l0,0
			C216.6,71.5,212.2,67.2,206.9,67.2z"/>
		<circle id="circle21" class="st0" cx="42.1" cy="76" r="9.8"/>
		<polygon id="polygon18" class="st1" points="1184.2,17.4 1269.1,17.4 1269.1,0.1 1164.7,0.1 1164.7,153.8 1269.1,153.8 
			1269.1,136.4 1184.2,136.4 1184.2,92.1 1184.2,62.4 		"/>
		<polygon id="polygon25" class="st1" points="1070.1,153.8 1089.6,153.8 1089.6,17.4 1142.7,17.4 1142.7,0.1 1017.1,0.1 
			1017.1,17.4 1070.1,17.4 		"/>
		<path id="path25" class="st1" d="M988,85.7c4.9-4.5,8.7-10.1,11.2-16.2c2.7-6.4,4-13.2,4-20.1c0-6.1-1.2-12.2-3.5-17.9
			c-2.3-5.8-5.6-11.1-9.7-15.8c-4.2-4.7-9.2-8.5-14.7-11.3c-5.8-2.8-12.2-4.3-18.6-4.2h-65.8v153.7h19.5V98.6h40.7l35.1,55.2h22.1
			L971,94.9C977.3,93.3,983.2,90.1,988,85.7L988,85.7L988,85.7z M956.9,81.3h-46.5v-64h45.2c5,0,9.8,1.5,13.9,4.3
			c4.3,3,7.8,7,10.2,11.6c2.6,4.9,4,10.4,3.9,15.9c0,5.5-1.1,10.9-3.4,15.8c-2,4.7-5.2,8.7-9.3,11.8
			C966.9,79.8,961.9,81.4,956.9,81.3L956.9,81.3z"/>
		<polygon id="polygon20" class="st1" points="799.3,28.6 850.7,153.8 870.3,153.8 807.6,0.1 791.1,0.1 728.1,153.8 747.7,153.8 		
			"/>
		<path id="path24" class="st1" d="M727.7,31.4c-2.3-5.8-5.6-11.1-9.7-15.8c-4.1-4.7-9.1-8.5-14.7-11.3c-5.8-2.8-12.2-4.3-18.6-4.2
			h-64.1v153.7H640V98.6h45.9c8.5,0.2,16.8-2.3,23.8-7c6.8-4.7,12.2-11,15.8-18.4c3.7-7.4,5.6-15.7,5.6-24
			C731.1,43.1,730,37,727.7,31.4L727.7,31.4L727.7,31.4z M708.1,65.2c-2,4.6-5.2,8.7-9.3,11.7c-4,2.9-8.9,4.4-13.9,4.3H640V17.4
			h43.5c5,0,9.8,1.4,13.9,4.1c4.3,2.9,7.8,6.8,10.2,11.4c2.6,5,4,10.7,3.9,16.3C711.5,54.7,710.4,60.2,708.1,65.2L708.1,65.2
			L708.1,65.2z"/>
		<polygon id="polygon19" class="st1" points="528.9,28.6 580.3,153.8 599.9,153.8 537.2,0.1 520.7,0.1 457.7,153.8 477.3,153.8 		
			"/>
		<polygon id="polygon23" class="st1" points="417.7,120.2 323.8,0.1 307.3,0.1 307.3,153.8 326.8,153.8 326.8,36 419.4,153.8 
			437.2,153.8 437.2,0.3 417.7,0.3 		"/>
		<path id="path23" class="st1" d="M258.6,24.4C252.4,17,244.8,11,236.2,6.6c-9-4.5-19-6.8-29-6.6c-9.8-0.1-19.5,2.1-28.4,6.3
			c-8.6,4.2-16.4,10-22.8,17.1c-6.5,7.2-11.6,15.5-15.1,24.6c-3.6,9.2-5.5,19.1-5.4,29c0,19.5,7,38.3,19.7,53.1
			c6.3,7.3,14,13.2,22.6,17.4c18.2,8.4,39.1,8.5,57.4,0.2c8.6-4.1,16.4-9.9,22.7-17c19.9-22.2,25.8-53.6,15.2-81.5
			C269.8,40.1,264.9,31.7,258.6,24.4z M255.3,98.4c-2.3,6.9-5.7,13.4-10.2,19.1c-4.4,5.7-10,10.3-16.4,13.7
			c-6.7,3.5-14.2,5.3-21.8,5.1c-7.4,0.1-14.7-1.6-21.4-4.9c-6.3-3.2-11.9-7.7-16.4-13.2c-4.6-5.7-8.2-12.2-10.6-19.1
			c-2.5-7.1-3.7-14.6-3.7-22.1c0-7.4,1.2-14.7,3.6-21.7c2.3-6.9,5.8-13.4,10.4-19.1c4.4-5.6,10-10.3,16.3-13.6
			c6.8-3.4,14.2-5.1,21.8-5c7.3-0.1,14.5,1.5,21,4.8c6.4,3.2,11.9,7.7,16.4,13.2c4.7,5.7,8.3,12.2,10.7,19.1
			c2.5,7.1,3.8,14.7,3.7,22.2C258.8,84.3,257.6,91.5,255.3,98.4L255.3,98.4z"/>
		<path id="path21" class="st1" d="M89.3,74.9c6.9-3,12.6-8.1,16.3-14.6c3.8-6.4,5.7-13.7,5.7-21.1c0-6.5-1.4-12.9-4.2-18.7
			c-2.7-5.9-6.9-10.9-12.2-14.7c-5.4-3.9-12-5.9-18.6-5.7H0v153.5h72.9c7.8,0.1,15.6-1.6,22.6-5c6.6-3.1,12.2-7.9,16.3-13.8
			c4.1-6.1,6.2-13.4,6.1-20.8c0.2-8.9-2.5-17.6-7.7-24.8C105,82.3,97.7,77.2,89.3,74.9L89.3,74.9z M94.8,123.4
			c-2.2,3.9-5.3,7.2-9.1,9.6c-3.8,2.5-8.3,3.7-12.9,3.7H19.5V83.9l0,0V68.3l0,0V16.9h50.2c4.1,0,8.2,1.2,11.6,3.5
			c3.4,2.3,6.2,5.5,8,9.2c2,4.1,3,8.5,2.9,13.1c0,4.4-1,8.8-3.1,12.8c-2,3.8-4.9,7-8.4,9.3c-2.9,1.9-6.2,3-9.7,3.3l0,0
			c-3.8,0-7,3.5-7,7.9s3.1,7.9,7,7.9h3.5c4.3-0.1,8.6,1.2,12.2,3.7c3.6,2.5,6.5,5.8,8.4,9.7c2.1,4.1,3.2,8.6,3.1,13.2
			C98.1,115,97,119.5,94.8,123.4z"/>
	</g>
</g>
</svg>
