<svg version="1.1"  xmlns="http://www.w3.org/2000/svg" id="logo_bonaparte" aria-labelledby="catTitle catDesc" role="img">
   <title id="logo_bonaparteTitle">Bonaparte | Digital Strategist</title>
   <desc id="logo_bonaparteDesc">Logo for Bonaparte. A digital marketing agency</desc>
   <defs id="defs1">
    <style id="style1">
      .cls-1{fill:#14271d}.cls-2{fill:#fff}.cls-3{fill:#ec8602}.cls-4{fill:#c0d22d}
    </style>
  </defs>
  <g id="layer3" style="display:inline" transform="translate(-56.11 -215.747)">
    <g id="g1">
      <path id="path18" d="M752.34 260a5.53 5.53 0 1 0 5.53-5.52 5.53 5.53 0 0 0-5.53 5.52z" class="cls-3" style="display:inline"/>
      <path id="polygon18" d="M725.79 304.16h59.99v-9.96h-48.79v-68.45l48.79-.03v-9.93h-59.99z" class="cls-4" style="display:inline;fill:#14271d;fill-opacity:1"/>
      <path id="path19" d="M360.15 268.44a5.41 5.41 0 1 0 5.41 5.41 5.41 5.41 0 0 0-5.41-5.41z" class="cls-3" style="display:inline"/>
      <path id="polygon19" d="m330.55 304.16 29.67-71.94 29.54 71.94h11.28l-36.09-88.37h-9.46l-36.22 88.37z" class="cls-4" style="display:inline;fill:#14271d;fill-opacity:1"/>
      <path id="path20" d="M515.63 268.44a5.41 5.41 0 1 0 5.41 5.41 5.41 5.41 0 0 0-5.41-5.41z" class="cls-3" style="display:inline;fill:#14271d;fill-opacity:1"/>
      <path id="polygon20" d="m486.03 304.16 29.67-71.94 29.54 71.94h11.28l-36.09-88.37h-9.46l-36.22 88.37z" class="cls-4" style="display:inline;fill:#14271d;fill-opacity:1"/>
      <path id="path21" d="M107.45 258.8a20.13 20.13 0 0 0 9.39-8.39 23.74 23.74 0 0 0 3.29-12.12 25.07 25.07 0 0 0-2.42-10.75 21.75 21.75 0 0 0-7-8.46 17.87 17.87 0 0 0-10.71-3.29H56.11v88.26H98a29.39 29.39 0 0 0 13-2.86 23.47 23.47 0 0 0 9.38-7.95 20.67 20.67 0 0 0 3.48-11.94 23.44 23.44 0 0 0-4.41-14.23 22.15 22.15 0 0 0-12-8.27zm3.17 27.91a15.46 15.46 0 0 1-5.22 5.53 13.39 13.39 0 0 1-7.4 2.12H67.3v-68.88h28.84a11.58 11.58 0 0 1 6.65 2 13.91 13.91 0 0 1 4.6 5.29 16.3 16.3 0 0 1 1.68 7.52 15.24 15.24 0 0 1-1.8 7.33 14.49 14.49 0 0 1-4.85 5.35 12.25 12.25 0 0 1-5.56 1.89c-2.18 0-4 2-4 4.56 0 2.56 1.77 4.57 4 4.57h2a12 12 0 0 1 7 2.12 15.24 15.24 0 0 1 4.85 5.59 16.26 16.26 0 0 1 1.8 7.58 14.76 14.76 0 0 1-1.89 7.43z" class="cls-4" style="display:inline;fill:#14271d;fill-opacity:1"/>
      <circle id="circle21" cx="80.32" cy="259.45" r="5.65" class="cls-3" style="display:inline"/>
      <path id="path22" d="M175.05 254.38a5.59 5.59 0 1 0 5.59 5.59 5.59 5.59 0 0 0-5.59-5.59z" class="cls-3" style="display:inline"/>
      <path id="path23" d="M204.82 229.75a41.14 41.14 0 0 0-12.89-10.2 36.41 36.41 0 0 0-16.7-3.8 37.07 37.07 0 0 0-16.33 3.62 42.23 42.23 0 0 0-13.08 9.82 46.38 46.38 0 0 0-8.71 14.12A44.81 44.81 0 0 0 134 260a46.86 46.86 0 0 0 11.35 30.51 40.6 40.6 0 0 0 13 10 39.48 39.48 0 0 0 33 .12 41.13 41.13 0 0 0 13.07-9.76 45.91 45.91 0 0 0 8.75-46.87 47.78 47.78 0 0 0-8.35-14.25zm-1.9 42.6a35.9 35.9 0 0 1-5.89 11 29.34 29.34 0 0 1-9.4 7.86 26.12 26.12 0 0 1-12.52 2.95 26.5 26.5 0 0 1-12.28-2.83 29.33 29.33 0 0 1-9.45-7.61 35.1 35.1 0 0 1-6.08-11 38.7 38.7 0 0 1-2.15-12.72 37.9 37.9 0 0 1 2.09-12.46 37 37 0 0 1 5.95-11 28.85 28.85 0 0 1 9.39-7.8 26.72 26.72 0 0 1 12.53-2.88 26.41 26.41 0 0 1 12.09 2.76 29.27 29.27 0 0 1 9.46 7.61 36 36 0 0 1 6.14 11 38.42 38.42 0 0 1 2.14 12.77 39.31 39.31 0 0 1-2.02 12.35z" class="cls-4" style="display:inline;fill:#14271d;fill-opacity:1"/>
      <path id="polygon23" d="M232.8 215.79v88.37H244v-67.71l53.27 67.71h10.2v-88.25h-11.2v68.95l-54.01-69.07z" class="cls-4" style="display:inline;fill:#14271d;fill-opacity:1"/>
      <path id="path24" d="M474.5 233.77a30.09 30.09 0 0 0-5.6-9.08 28.17 28.17 0 0 0-8.46-6.48 23.73 23.73 0 0 0-10.71-2.42h-36.84v88.37h11.2v-31.74h26.39a23.44 23.44 0 0 0 13.69-4.05 27.38 27.38 0 0 0 9.09-10.58 30.66 30.66 0 0 0 3.23-13.79 27.7 27.7 0 0 0-1.99-10.23zm-11.26 19.48a16.7 16.7 0 0 1-5.35 6.72 13.3 13.3 0 0 1-8 2.49h-25.8v-36.72h25a14.24 14.24 0 0 1 8 2.37 17.68 17.68 0 0 1 5.85 6.53 19.6 19.6 0 0 1 2.24 9.4 22 22 0 0 1-1.94 9.21z" class="cls-4" style="display:inline;fill:#14271d;fill-opacity:1"/>
      <path id="path25" d="M624.17 265a26.72 26.72 0 0 0 6.47-9.33 29.66 29.66 0 0 0 2.3-11.58 27.7 27.7 0 0 0-2-10.27 30.29 30.29 0 0 0-5.6-9.08 28.09 28.09 0 0 0-8.47-6.48 23.66 23.66 0 0 0-10.7-2.42h-37.83v88.37h11.2v-31.79h23.4l20.17 31.74h12.69l-21.41-33.86a22.83 22.83 0 0 0 9.78-5.3zm-17.87-2.49h-26.76v-36.77h26a13.77 13.77 0 0 1 8 2.49 18.57 18.57 0 0 1 5.85 6.66 19 19 0 0 1 2.24 9.15 21.59 21.59 0 0 1-1.93 9.09 17.08 17.08 0 0 1-5.35 6.78 13.07 13.07 0 0 1-8.05 2.55z" class="cls-4" style="display:inline;fill:#14271d;fill-opacity:1"/>
      <path id="polygon25" d="M671.4 304.16h11.2v-78.41h30.5v-9.96h-72.19v9.96h30.49z" class="cls-4" style="display:inline;fill:#14271d;fill-opacity:1"/>
    </g>
  </g>
</svg>