<svg width="159" height="36" viewBox="0 0 159 36" fill="none" xmlns="http://www.w3.org/2000/svg">
<path d="M151.766 17.9111C151.766 18.5865 152.299 19.136 152.96 19.1372C153.62 19.1372 154.158 18.5916 154.159 17.9162C154.159 17.2409 153.625 16.6914 152.965 16.6901C152.965 16.6901 152.963 16.6901 152.962 16.6901C152.302 16.6901 151.767 17.237 151.766 17.9111Z" fill="#EC8602"/>
<path d="M100.557 19.7783C99.9098 19.7783 99.3862 20.3137 99.3862 20.9751C99.3862 21.6365 99.9098 22.172 100.557 22.172C101.203 22.172 101.727 21.6365 101.727 20.9751C101.727 20.3137 101.203 19.7783 100.557 19.7783Z" fill="#EC8602"/>
<path d="M66.9199 19.7783C66.2731 19.7783 65.7494 20.3137 65.7494 20.9751C65.7494 21.6365 66.2731 22.172 66.9199 22.172C67.5667 22.172 68.0904 21.6365 68.0904 20.9751C68.0904 20.3137 67.5667 19.7783 66.9199 19.7783Z" fill="#EC8602"/>
<path d="M26.8759 16.6672C26.2079 16.6672 25.6668 17.2205 25.6668 17.9035C25.6668 18.5865 26.2079 19.1398 26.8759 19.1398C27.5438 19.1398 28.0849 18.5865 28.0849 17.9035C28.0849 17.2205 27.5438 16.6672 26.8759 16.6672Z" fill="#EC8602"/>
<path d="M6.38178 19.0393C7.05708 19.0393 7.60451 18.4795 7.60451 17.789C7.60451 17.0985 7.05708 16.5388 6.38178 16.5388C5.70649 16.5388 5.15906 17.0985 5.15906 17.789C5.15906 18.4795 5.70649 19.0393 6.38178 19.0393Z" fill="#EC8602"/>
<path d="M148.445 10.3345L159 10.3281V8.13159H146.021V27.6793H159V25.4764H148.445V19.8355V16.0529V10.3345Z" fill="#14271D"/>
<path d="M134.256 27.6793H136.679V10.3345H143.276V8.13159H127.659V10.3345H134.256V27.6793Z" fill="#14271D"/>
<path d="M124.037 19.0164C124.643 18.439 125.121 17.7356 125.437 16.9521C125.769 16.1407 125.938 15.2694 125.934 14.3905C125.933 13.6121 125.786 12.8414 125.501 12.1189C125.216 11.3812 124.807 10.7008 124.29 10.1106C123.774 9.51792 123.152 9.03078 122.458 8.67719C121.737 8.31598 120.945 8.13282 120.143 8.14173H111.958V27.6907H114.381V20.6584H119.444L123.807 27.6793H126.552L121.92 20.1891C122.709 19.983 123.436 19.5799 124.036 19.0164H124.037ZM120.171 18.4657H114.382V10.3319H120.007C120.627 10.3268 121.231 10.5202 121.737 10.8827C122.27 11.2617 122.704 11.7679 123.002 12.3555C123.327 12.9775 123.494 13.6745 123.487 14.3791C123.492 15.0723 123.351 15.7591 123.069 16.3899C122.816 16.9827 122.418 17.499 121.913 17.8895C121.409 18.2698 120.797 18.4682 120.171 18.4542V18.4657Z" fill="#14271D"/>
<path d="M100.572 11.7654L106.961 27.6793H109.402L101.594 8.13159H99.5478L91.7127 27.6793H94.1519L100.572 11.7654Z" fill="#14271D"/>
<path d="M91.658 12.1087C91.3743 11.371 90.9639 10.6906 90.4464 10.1004C89.9315 9.50772 89.3095 9.02186 88.6167 8.667C87.8965 8.30578 87.1029 8.12263 86.2993 8.13154H78.3299V27.6805H80.7529V20.6597H86.4623C87.5171 20.6826 88.552 20.3697 89.424 19.7643C90.2661 19.1703 90.944 18.3639 91.3905 17.424C91.8532 16.4764 92.0921 15.4322 92.0896 14.374C92.0871 13.5981 91.9416 12.8312 91.6592 12.1113L91.658 12.1087ZM89.2224 16.4179C88.9699 17.0081 88.5707 17.5206 88.0656 17.9048C87.5619 18.2736 86.9549 18.4669 86.3354 18.4555H80.7542V10.3319H86.1625C86.7782 10.3255 87.3803 10.5087 87.8927 10.8559C88.4264 11.221 88.8617 11.7183 89.1578 12.3008C89.4862 12.9418 89.6528 13.6566 89.6429 14.3803C89.6479 15.0824 89.5048 15.7769 89.2237 16.4179H89.2224Z" fill="#14271D"/>
<path d="M66.9347 11.7654L73.3257 27.6793H75.7662L67.9584 8.13159H65.911L58.0759 27.6793H60.5163L66.9347 11.7654Z" fill="#14271D"/>
<path d="M53.1005 23.4096L41.4156 8.13159H39.3694V27.6793H41.7924V12.7015L53.3157 27.6793H55.5236V8.15703H53.1005V23.4096Z" fill="#14271D"/>
<path d="M33.3155 11.2197C32.5443 10.2836 31.5952 9.51533 30.5267 8.96333C29.4047 8.39225 28.1671 8.10481 26.9145 8.12134C25.693 8.10989 24.484 8.38335 23.3819 8.92263C22.3097 9.45174 21.3482 10.1894 20.5521 11.095C19.7461 12.0121 19.1067 13.0703 18.6676 14.2188C18.2149 15.394 17.9872 16.6481 17.9947 17.9111C17.9984 20.3887 18.8691 22.7824 20.4501 24.6598C21.2312 25.5857 22.1878 26.3374 23.2625 26.8716C25.5238 27.9463 28.1322 27.9552 30.4011 26.8983C31.4745 26.3794 32.436 25.6442 33.2284 24.7399C35.7025 21.9163 36.4326 17.9187 35.1216 14.3714C34.7024 13.2216 34.0916 12.1545 33.3155 11.2197ZM32.905 20.6431C32.6226 21.5245 32.191 22.3475 31.6313 23.0762C31.0802 23.7961 30.3874 24.3888 29.5975 24.8149C28.7616 25.2601 27.8312 25.4839 26.8884 25.4674C25.9667 25.4801 25.0549 25.2652 24.2315 24.8416C23.4428 24.4321 22.7463 23.8585 22.1865 23.1576C21.6081 22.4339 21.1628 21.6098 20.8718 20.7245C20.5633 19.8202 20.4066 18.8688 20.4066 17.9111C20.4066 16.9724 20.5583 16.0414 20.8593 15.1549C21.1504 14.2748 21.5857 13.4518 22.1467 12.7218C22.6953 12.0044 23.3881 11.4168 24.178 10.9958C25.0176 10.5608 25.948 10.3421 26.8884 10.3586C27.7952 10.3472 28.692 10.5557 29.5042 10.9691C30.2941 11.3774 30.9907 11.951 31.5504 12.6531C32.1301 13.3781 32.5791 14.2023 32.8789 15.0862C33.1886 15.9944 33.3453 16.9495 33.3416 17.9111C33.3391 18.8396 33.1923 19.7617 32.905 20.6431Z" fill="#14271D"/>
<path d="M12.2504 17.6453C13.1037 17.265 13.8165 16.6138 14.2817 15.7896C14.7506 14.9769 14.9957 14.0509 14.9932 13.1085C14.9932 12.2855 14.814 11.4741 14.4695 10.73C14.1299 9.98343 13.6087 9.33985 12.9557 8.85907C12.2803 8.36812 11.468 8.11374 10.6396 8.13155H1.14389V27.6564H10.2067C11.1795 27.6678 12.141 27.4516 13.0191 27.0242C13.8364 26.6325 14.5367 26.0258 15.0479 25.2652C15.5579 24.4843 15.8203 23.5621 15.8004 22.6235C15.8253 21.4966 15.4907 20.3913 14.8464 19.4756C14.207 18.584 13.2928 17.9391 12.2504 17.6466V17.6453ZM12.9358 23.8191C12.6646 24.3164 12.2765 24.7374 11.8064 25.0426C11.3287 25.3555 10.7727 25.5183 10.2055 25.512H3.56447V18.7964V16.8059V10.2747H9.80373C10.3162 10.2683 10.8187 10.4222 11.2429 10.7173C11.6671 11.0137 12.0091 11.4168 12.238 11.8874C12.488 12.4038 12.6124 12.9749 12.6012 13.5511C12.6062 14.1158 12.4731 14.6742 12.2119 15.1727C11.9656 15.651 11.6049 16.058 11.162 16.3556C10.8001 16.5922 10.3871 16.7359 9.95921 16.7741C9.48779 16.7741 9.09348 17.2167 9.09348 17.7827C9.09348 18.3487 9.47659 18.7938 9.95921 18.7938H10.3921C10.9319 18.7849 11.4618 18.949 11.9059 19.2631C12.3499 19.5811 12.7107 20.0059 12.9557 20.4994C13.2169 21.0184 13.35 21.5933 13.345 22.1758C13.3525 22.7507 13.2119 23.3179 12.9358 23.8191Z" fill="#14271D"/>
</svg>
