<svg width="35" height="36" viewBox="0 0 35 36" fill="none" xmlns="http://www.w3.org/2000/svg">
<path d="M15.3125 30.6423C15.3125 30.6423 13.125 30.6423 13.125 28.4548C13.125 26.2673 15.3125 19.7048 24.0625 19.7048C32.8125 19.7048 35 26.2673 35 28.4548C35 30.6423 32.8125 30.6423 32.8125 30.6423H15.3125ZM24.0625 17.5173C25.803 17.5173 27.4722 16.8259 28.7029 15.5952C29.9336 14.3645 30.625 12.6953 30.625 10.9548C30.625 9.21435 29.9336 7.54515 28.7029 6.31445C27.4722 5.08374 25.803 4.39233 24.0625 4.39233C22.322 4.39233 20.6528 5.08374 19.4221 6.31445C18.1914 7.54515 17.5 9.21435 17.5 10.9548C17.5 12.6953 18.1914 14.3645 19.4221 15.5952C20.6528 16.8259 22.322 17.5173 24.0625 17.5173Z" fill="#EC8602"/>
<path fill-rule="evenodd" clip-rule="evenodd" d="M11.41 30.6423C11.0857 29.9594 10.924 29.2107 10.9375 28.4548C10.9375 25.4907 12.425 22.4392 15.1725 20.3173C13.8011 19.8947 12.3724 19.6881 10.9375 19.7048C2.1875 19.7048 0 26.2673 0 28.4548C0 30.6423 2.1875 30.6423 2.1875 30.6423H11.41Z" fill="#EC8602"/>
<path d="M9.84375 17.5173C11.2942 17.5173 12.6852 16.9412 13.7107 15.9156C14.7363 14.89 15.3125 13.499 15.3125 12.0486C15.3125 10.5982 14.7363 9.20718 13.7107 8.18159C12.6852 7.156 11.2942 6.57983 9.84375 6.57983C8.39335 6.57983 7.00235 7.156 5.97676 8.18159C4.95117 9.20718 4.375 10.5982 4.375 12.0486C4.375 13.499 4.95117 14.89 5.97676 15.9156C7.00235 16.9412 8.39335 17.5173 9.84375 17.5173Z" fill="#EC8602"/>
</svg>
