<svg width="37" height="31" viewBox="0 0 37 31" fill="none" xmlns="http://www.w3.org/2000/svg">
<path d="M7.82049 15.2436C5.59827 15.0726 3.8034 14.3461 2.43588 13.0641C1.06835 11.782 0.384592 10.0726 0.384592 7.93589C0.384592 5.54273 1.11109 3.70512 2.56408 2.42307C4.01707 1.14102 5.81194 0.499997 7.94869 0.499998C10.8547 0.670936 12.9487 1.73931 14.2307 3.70513C15.5128 5.67094 16.1538 7.89315 16.1538 10.3718C16.1538 12.765 15.8119 14.9872 15.1282 17.0385C14.3589 19.0897 13.376 21.0128 12.1795 22.8077C10.9829 24.6026 9.61536 26.1838 8.0769 27.5513C6.45297 28.9188 4.7863 29.9017 3.0769 30.5L-2.25183e-05 26.2692C1.70938 25.0726 3.33331 23.4487 4.87177 21.3974C6.32476 19.3461 7.30767 17.2949 7.82049 15.2436ZM27.7655 15.2436C25.5433 15.0726 23.7485 14.3461 22.3809 13.0641C21.0134 11.782 20.3296 10.0726 20.3296 7.93589C20.3296 5.54273 21.0989 3.70512 22.6373 2.42307C24.0903 1.14102 25.7997 0.499999 27.7655 0.499999C30.757 0.585468 32.8938 1.61111 34.1758 3.57692C35.4579 5.6282 36.0989 7.89316 36.0989 10.3718C36.0989 12.765 35.757 14.9872 35.0732 17.0385C34.304 19.0897 33.3211 21.0128 32.1245 22.8077C30.9279 24.6026 29.5604 26.1838 28.022 27.5513C26.398 28.9188 24.7314 29.9017 23.022 30.5L19.945 26.2692C21.6544 25.0726 23.2784 23.4487 24.8168 21.3974C26.2698 19.3461 27.2527 17.2949 27.7655 15.2436Z" fill="#EC8602"/>
</svg>
