<svg width="37" height="31" viewBox="0 0 37 31" fill="none" xmlns="http://www.w3.org/2000/svg">
<path d="M29.1795 15.7564C31.4017 15.9274 33.1966 16.6539 34.5641 17.9359C35.9316 19.2179 36.6154 20.9273 36.6154 23.0641C36.6154 25.4573 35.8889 27.2949 34.4359 28.5769C32.9829 29.859 31.188 30.5 29.0513 30.5C26.1453 30.3291 24.0513 29.2607 22.7692 27.2949C21.4872 25.3291 20.8461 23.1068 20.8461 20.6282C20.8461 18.235 21.188 16.0128 21.8718 13.9615C22.641 11.9103 23.6239 9.98718 24.8205 8.19231C26.0171 6.39744 27.3846 4.81624 28.9231 3.44872C30.547 2.0812 32.2137 1.09829 33.9231 0.5L37 4.73078C35.2906 5.92736 33.6667 7.55129 32.1282 9.60257C30.6752 11.6539 29.6923 13.7051 29.1795 15.7564ZM9.23442 15.7564C11.4566 15.9274 13.2515 16.6539 14.619 17.9359C15.9866 19.2179 16.6703 20.9273 16.6703 23.0641C16.6703 25.4573 15.9011 27.2949 14.3626 28.5769C12.9096 29.859 11.2002 30.5 9.23442 30.5C6.24297 30.4145 4.10622 29.3889 2.82417 27.4231C1.54212 25.3718 0.901093 23.1068 0.901093 20.6282C0.901093 18.235 1.24297 16.0128 1.92673 13.9615C2.69596 11.9103 3.67887 9.98718 4.87545 8.19231C6.07203 6.39744 7.43955 4.81624 8.97802 3.44872C10.6019 2.0812 12.2686 1.09829 13.978 0.5L17.0549 4.73078C15.3455 5.92736 13.7216 7.55129 12.1831 9.60257C10.7302 11.6539 9.74725 13.7051 9.23442 15.7564Z" fill="#EC8602"/>
</svg>
