<svg width="138" height="36" viewBox="0 0 138 36" fill="none" xmlns="http://www.w3.org/2000/svg">
<g clip-path="url(#clip0_806727_620)">
<path d="M31.5374 24.3242H32.9565L36.3108 33.0433H34.9433L33.8854 30.2141H30.5827L29.5248 33.0433H28.183L31.5374 24.3242ZM33.4467 29.0567L32.234 25.7903L31.0213 29.0567H33.4467Z" fill="#14271D"/>
<path d="M39.691 27.1533C40.4908 27.1533 41.1617 27.4877 41.6261 28.0278L41.6777 27.2562H42.7873V32.9661C42.7873 34.5864 41.6777 35.7181 39.8716 35.7181C38.246 35.7181 37.2655 34.8694 37.0849 33.7634L38.3234 33.5319C38.4524 34.2263 38.9943 34.6121 39.8974 34.6121C40.9295 34.6121 41.6003 34.0463 41.6003 33.0689V32.2202C41.1359 32.7603 40.465 33.0689 39.691 33.0689C38.0654 33.0689 36.8785 31.8344 36.8785 30.1369C36.8785 28.3879 38.0654 27.1533 39.691 27.1533ZM39.8716 31.9373C40.9037 31.9373 41.6003 31.1914 41.6003 30.1111C41.6003 29.0052 40.9037 28.2593 39.8716 28.2593C38.8395 28.2593 38.1428 29.0052 38.1428 30.1111C38.117 31.1914 38.8395 31.9373 39.8716 31.9373Z" fill="#14271D"/>
<path d="M44.1548 30.1369C44.1548 28.4136 45.3933 27.1533 47.0963 27.1533C48.7734 27.1533 49.9345 28.285 49.9345 29.9311C49.9345 30.1111 49.9087 30.2912 49.8829 30.4969H45.3933C45.5223 31.5772 46.1932 32.0916 47.1737 32.0916C48.0252 32.0916 48.5154 31.7058 48.7476 31.0885L49.9087 31.2943C49.5991 32.4517 48.5928 33.1461 47.1995 33.1461C45.3159 33.1461 44.1548 31.8858 44.1548 30.1369ZM45.4449 29.5196H48.6444C48.5154 28.6708 47.9478 28.1821 47.0963 28.1821C46.348 28.1564 45.6513 28.6194 45.4449 29.5196Z" fill="#14271D"/>
<path d="M51.3537 27.2562H52.4632L52.5148 27.9764C52.9535 27.462 53.5727 27.1533 54.321 27.1533C55.5595 27.1533 56.5916 27.9764 56.5916 29.571V33.0432H55.3789V29.7253C55.3789 28.748 54.8112 28.2593 54.0372 28.2593C53.3147 28.2593 52.5664 28.6708 52.5664 29.8025V33.0432H51.3537V27.2562Z" fill="#14271D"/>
<path d="M60.7717 27.1533C62.1908 27.1533 63.1971 27.9764 63.4551 29.2109L62.2424 29.4167C62.0618 28.7222 61.5199 28.285 60.7717 28.285C59.7654 28.285 59.0687 29.0052 59.0687 30.1626C59.0687 31.2943 59.7654 32.0659 60.7717 32.0659C61.6231 32.0659 62.165 31.5772 62.3198 30.857L63.5325 31.0628C63.3261 32.2716 62.2424 33.1461 60.7975 33.1461C59.0945 33.1461 57.8302 31.8858 57.8302 30.1369C57.8044 28.4136 59.0687 27.1533 60.7717 27.1533Z" fill="#14271D"/>
<path d="M65.1839 27.2563L66.9901 31.4744L68.564 27.2563H69.8283L66.5514 35.5897H65.3129L66.3192 32.9919L63.8163 27.2563H65.1839Z" fill="#14271D"/>
<path d="M74.7278 24.9958H78.0047C79.7851 24.9958 80.9462 26.1275 80.9462 27.6965C80.9462 29.2397 79.7851 30.3971 78.0047 30.3971H76.0179V33.715H74.7278V24.9958ZM76.0179 26.179V29.2397H78.0047C79.011 29.2397 79.6303 28.6224 79.6303 27.6965C79.6303 26.7448 79.011 26.1533 78.0047 26.1533H76.0179V26.179Z" fill="#14271D"/>
<path d="M85.6423 32.7633C85.1779 33.432 84.4812 33.8178 83.6039 33.8178C82.5202 33.8178 81.7461 33.2005 81.7461 32.146C81.7461 30.9886 82.7266 30.5256 84.0167 30.217L85.5907 29.8569C85.4616 29.1368 84.9714 28.8281 84.3005 28.8281C83.5523 28.8281 83.062 29.1368 82.8814 29.8312L81.7203 29.6254C82.0041 28.5195 82.933 27.7993 84.3005 27.7993C85.7971 27.7993 86.7776 28.5966 86.7776 30.1398V33.7149H85.6939L85.6423 32.7633ZM83.8103 32.8147C84.7134 32.8147 85.6165 32.1975 85.6165 30.9629V30.8343L84.0683 31.2201C83.3974 31.3744 82.9846 31.6059 82.9846 32.0946C82.9846 32.5318 83.32 32.8147 83.8103 32.8147Z" fill="#14271D"/>
<path d="M88.4805 27.928H89.6158L89.6674 28.7253C90.0029 28.1852 90.5705 27.8508 91.3446 27.8508C91.551 27.8508 91.7058 27.8766 91.9123 27.928L91.7574 29.0854C91.551 29.034 91.3704 29.0082 91.164 29.0082C90.3641 29.0082 89.6932 29.5998 89.6932 30.7058V33.715H88.4805V27.928Z" fill="#14271D"/>
<path d="M94.2603 26.7449H94.5441V27.9537H96.6341V29.0082H94.5441V31.8117C94.5441 32.4547 94.8538 32.7377 95.4472 32.7377C95.7053 32.7377 95.9891 32.6605 96.2987 32.5319L96.5825 33.5093C96.1697 33.715 95.7052 33.8179 95.215 33.8179C94.0539 33.8179 93.3572 33.1749 93.3572 32.0432V28.9825H92.2993V28.6739L94.2603 26.7449Z" fill="#14271D"/>
<path d="M97.7178 27.9278H98.8273L98.879 28.648C99.3176 28.1336 99.9369 27.825 100.685 27.825C101.924 27.825 102.956 28.648 102.956 30.2427V33.7149H101.743V30.397C101.743 29.4196 101.175 28.9309 100.401 28.9309C99.6789 28.9309 98.9306 29.3424 98.9306 30.4741V33.7149H97.7178V27.9278Z" fill="#14271D"/>
<path d="M104.194 30.8085C104.194 29.0852 105.433 27.825 107.136 27.825C108.813 27.825 109.974 28.9566 109.974 30.6027C109.974 30.7828 109.948 30.9628 109.922 31.1686H105.433C105.562 32.2488 106.233 32.7632 107.213 32.7632C108.065 32.7632 108.555 32.3774 108.787 31.7601L109.948 31.9659C109.639 33.1233 108.632 33.8177 107.239 33.8177C105.355 33.8177 104.194 32.5574 104.194 30.8085ZM105.484 30.1912H108.684C108.555 29.3424 107.987 28.8538 107.136 28.8538C106.362 28.8538 105.691 29.291 105.484 30.1912Z" fill="#14271D"/>
<path d="M111.367 27.928H112.503L112.554 28.7253C112.89 28.1852 113.457 27.8508 114.231 27.8508C114.438 27.8508 114.593 27.8766 114.799 27.928L114.644 29.1111C114.438 29.0597 114.257 29.034 114.051 29.034C113.251 29.034 112.58 29.6255 112.58 30.7315V33.715H111.367V27.928Z" fill="#14271D"/>
<path d="M95.0472 7.50377C95.0472 5.23943 93.6493 3.58472 91.0282 3.58472H82.466V15.2548H85.2618V11.2486H88.5818L91.9019 15.2548H95.0472V14.9935L91.9019 11.1616C93.824 10.8132 95.0472 9.41975 95.0472 7.50377ZM90.6787 8.9843H85.2618V6.11033H90.6787C91.7271 6.11033 92.3387 6.63287 92.3387 7.59086C92.3387 8.46176 91.7271 8.9843 90.6787 8.9843Z" fill="black"/>
<path d="M137.771 3.67163H135.15V8.02614H127.985V3.67163H125.102V15.3417H127.985V10.7259H135.15V15.3417H137.771V3.67163Z" fill="black"/>
<path d="M74.7775 3.67163L71.6322 13.4257H71.4575L68.3122 3.67163H63.3322V15.3417H65.9532V5.76179H66.128L69.2733 15.3417H73.6417L76.787 5.76179H76.9617V15.3417H79.7576V3.67163H74.7775Z" fill="black"/>
<path d="M44.0236 8.37447C43.0625 8.28738 41.1404 8.1132 40.1793 8.02611C39.2183 7.93902 38.6067 7.67775 38.6067 6.98103C38.6067 6.3714 39.2183 5.84886 41.6646 5.84886C43.8488 5.84886 45.7709 6.28431 47.5183 7.15521V4.5425C45.7709 3.75869 43.8488 3.32324 41.4899 3.32324C38.1698 3.32324 35.8109 4.71669 35.8109 7.06812C35.8109 9.07119 37.1214 10.1163 39.9172 10.4646C40.8783 10.5517 42.5383 10.7259 43.7614 10.813C45.072 10.9001 45.4215 11.3355 45.4215 11.8581C45.4215 12.6419 44.5478 13.1644 42.2762 13.1644C40.0046 13.1644 37.6456 12.3806 35.9856 11.3355V14.0353C37.2961 14.9062 39.6551 15.69 42.1888 15.69C45.8583 15.69 48.1299 14.2966 48.1299 11.771C48.1299 9.855 46.9067 8.72283 44.0236 8.37447Z" fill="black"/>
<path d="M49.9647 3.67163V15.3417H60.8858V12.9032H52.6731V10.5517H60.7984V8.20032H52.6731V6.02306H60.8858V3.67163H49.9647Z" fill="black"/>
<path d="M119.248 8.37447C118.287 8.28738 116.365 8.1132 115.404 8.02611C114.443 7.93902 113.832 7.67775 113.832 6.98103C113.832 6.3714 114.443 5.84886 116.89 5.84886C119.074 5.84886 120.996 6.28431 122.743 7.15521V4.5425C120.996 3.75869 119.074 3.32324 116.715 3.32324C113.395 3.32324 111.036 4.71669 111.036 7.06812C111.036 9.07119 112.346 10.1163 115.142 10.4646C116.103 10.5517 117.763 10.7259 118.986 10.813C120.297 10.9001 120.646 11.3355 120.646 11.8581C120.646 12.6419 119.773 13.1644 117.501 13.1644C115.229 13.1644 112.871 12.3806 111.211 11.3355V14.0353C112.521 14.9062 114.88 15.69 117.414 15.69C121.083 15.69 123.355 14.2966 123.355 11.771C123.442 9.855 122.132 8.72283 119.248 8.37447Z" fill="black"/>
<path d="M106.405 3.67163V9.68085C106.405 11.9452 105.007 13.1645 102.91 13.1645C100.814 13.1645 99.4157 11.9452 99.4157 9.59376V3.67163H96.6199V9.33249C96.6199 13.5999 99.241 15.6901 102.91 15.6901C106.405 15.6901 109.114 13.687 109.114 9.50667V3.67163H106.405Z" fill="black"/>
<path d="M26.0069 9.23844C26.0069 9.86026 25.7494 9.94909 24.9769 9.94909C24.2044 9.94909 24.1186 9.77143 24.0327 9.23844C23.8611 7.72831 22.9169 6.48467 21.2861 6.30701C20.6853 6.21818 20.5995 6.04052 20.5995 5.32987C20.5995 4.70805 20.6853 4.44156 21.2003 4.44156C24.0327 4.44156 26.0069 6.84 26.0069 9.23844ZM30.1268 9.23844C30.1268 4.70805 27.2085 0 20.4278 0H6.95233C6.69484 0 6.52317 0.177662 6.52317 0.444156C6.52317 0.621818 6.609 0.710649 6.69484 0.79948C7.20982 1.24364 7.89647 1.59896 8.84062 2.13195C9.78476 2.5761 10.4714 2.93143 11.2439 3.19792C11.5872 3.28675 11.673 3.46441 11.673 3.64208C11.673 3.90857 11.5014 3.9974 11.1581 3.9974H0.429156C0.0858312 3.9974 0 4.17506 0 4.44156C0 4.61922 0.0858319 4.79688 0.171663 4.88571C1.02998 5.86285 2.40328 6.92883 4.46322 8.2613C6.26568 9.4161 8.41146 10.6597 10.1281 11.4592C10.3856 11.6369 10.5572 11.8145 10.4714 11.9034C10.4714 12.081 10.2997 12.2587 9.95642 12.2587H5.14987C4.89238 12.2587 4.72072 12.4364 4.72072 12.614C4.72072 12.7029 4.80655 12.8805 4.97821 13.0582C6.09402 14.1242 7.89647 15.279 10.2139 16.2561C13.3897 17.6774 16.6513 18.4769 20.2562 18.4769C27.1227 18.7434 30.1268 13.4135 30.1268 9.23844ZM21.2003 15.9008C17.6812 15.9008 14.763 12.9693 14.763 9.23844C14.763 5.59636 17.6812 2.66493 21.2003 2.66493C24.8052 2.66493 27.6377 5.59636 27.6377 9.23844C27.5518 12.8805 24.7194 15.9008 21.2003 15.9008Z" fill="#FF642D"/>
</g>
<defs>
<clipPath id="clip0_806727_620">
<rect width="138" height="36" fill="white"/>
</clipPath>
</defs>
</svg>
