<svg width="35" height="36" viewBox="0 0 35 36" fill="none" xmlns="http://www.w3.org/2000/svg">
<path d="M21.9961 18.4169H21.4515C20.961 18.4169 20.5232 18.1068 20.3607 17.6442C20.2618 17.3609 20.1467 17.0855 20.0169 16.8183C19.8018 16.375 19.8906 15.8439 20.2387 15.496L20.6149 15.1197C21.2514 14.4833 21.2514 13.4519 20.6152 12.8156L20.3439 12.5444C19.708 11.9086 18.6759 11.908 18.0403 12.5444L17.6554 12.9288C17.309 13.2757 16.7805 13.3663 16.3384 13.1539C16.0704 13.0258 15.7946 12.9119 15.5111 12.8134C15.0454 12.6528 14.7325 12.2138 14.7325 11.7217V11.1892C14.7325 10.2898 14.0029 9.5603 13.1037 9.5603H12.7198C11.82 9.5603 11.0906 10.2896 11.0906 11.1892V11.7334C11.0906 12.2243 10.7806 12.6619 10.3176 12.8245C10.0345 12.9236 9.75929 13.0384 9.49228 13.1683C9.04941 13.3833 8.51808 13.2941 8.1697 12.9462L7.79414 12.5698C7.15742 11.9334 6.12602 11.9334 5.48993 12.5698L5.21834 12.8411C4.58225 13.4775 4.58193 14.5087 5.21834 15.1451L5.60289 15.5294C5.94938 15.8765 6.03975 16.4047 5.82741 16.8472C5.69912 17.1144 5.58535 17.3907 5.48771 17.6742C5.3264 18.1395 4.88765 18.4525 4.39518 18.4525H3.8632C2.96342 18.4525 2.23395 19.1819 2.23395 20.0819V20.4656C2.23395 21.3651 2.96342 22.0946 3.8632 22.0946H4.40686C4.8976 22.0946 5.33525 22.4047 5.49751 22.8677C5.59705 23.1506 5.71207 23.4265 5.84194 23.6935C6.05697 24.1365 5.96755 24.6674 5.61949 25.0155L5.24361 25.392C4.60705 26.0282 4.60736 27.0596 5.24361 27.6958L5.51505 27.9673C6.15098 28.6029 7.18237 28.6034 7.81862 27.9668L8.20272 27.5826C8.54952 27.2359 9.07801 27.1452 9.52056 27.3576C9.7882 27.486 10.0642 27.5998 10.3478 27.6981C10.8133 27.8589 11.1263 28.2977 11.1263 28.7903V29.3218C11.1256 30.2222 11.8553 30.9512 12.7554 30.9512H13.1388C14.0388 30.9512 14.7684 30.2222 14.7679 29.3224V28.7781C14.7679 28.2877 15.0779 27.8499 15.5408 27.6872C15.824 27.5879 16.0997 27.4732 16.367 27.3435C16.8095 27.1283 17.341 27.2174 17.6891 27.5653L18.065 27.9414C18.7012 28.5779 19.7326 28.5773 20.369 27.9417L20.6403 27.6703C21.2765 27.0342 21.277 26.0023 20.6403 25.3665L20.2561 24.9821C19.9089 24.6356 19.8187 24.1068 20.0308 23.6649C20.1594 23.3969 20.273 23.1206 20.3711 22.837C20.5324 22.3714 20.9707 22.0587 21.4635 22.0587H21.9954C22.8952 22.059 23.6244 21.3294 23.6244 20.4295V20.0457C23.6245 19.1465 22.8955 18.4163 21.9961 18.4169ZM12.9296 24.2179C10.7411 24.2179 8.96694 22.4441 8.96694 20.2557C8.96694 18.067 10.7411 16.2931 12.9296 16.2931C15.1179 16.2931 16.892 18.0671 16.892 20.2557C16.8919 22.4442 15.1179 24.2179 12.9296 24.2179Z" fill="#EC8602"/>
<path d="M32.776 9.26217H32.5031C32.0991 9.26217 31.7373 9.01206 31.5944 8.63429C31.5582 8.53808 31.5187 8.4428 31.4765 8.34927C31.3101 7.9813 31.389 7.54823 31.6749 7.26289L31.8675 7.06998C32.2804 6.65745 32.2804 5.98723 31.8675 5.57439L31.7928 5.49965C31.38 5.08697 30.7102 5.08697 30.2974 5.49965L30.1048 5.69257C29.819 5.97838 29.3864 6.05722 29.0182 5.89133C28.9245 5.84898 28.8299 5.80981 28.7331 5.77331C28.3556 5.63064 28.105 5.26835 28.105 4.86514V4.59197C28.105 4.00786 27.6317 3.53467 27.0482 3.53467H26.9426C26.3584 3.53467 25.8847 4.00786 25.8847 4.59197V4.86435C25.8847 5.26835 25.6349 5.63064 25.2571 5.77331C25.1609 5.80981 25.0652 5.84898 24.972 5.89133C24.6041 6.05722 24.1711 5.97838 23.8856 5.69289L23.6928 5.49997C23.2803 5.08697 22.6099 5.08714 22.1971 5.50014L22.1225 5.57471C21.7097 5.98755 21.7097 6.65745 22.1225 7.07013L22.3151 7.26289C22.6005 7.54823 22.6801 7.9813 22.5137 8.34927C22.4714 8.4428 22.432 8.53792 22.3955 8.63429C22.2528 9.01206 21.8911 9.26264 21.4874 9.26264H21.2145C20.6307 9.26233 20.1573 9.73616 20.1573 10.3196V10.4253C20.1573 11.0093 20.6307 11.4828 21.2145 11.4828H21.4866C21.8906 11.4826 22.2528 11.7328 22.3955 12.1105C22.432 12.2071 22.4714 12.3025 22.5136 12.3963C22.6798 12.7638 22.6008 13.1966 22.3153 13.4819L22.1227 13.6753C21.7098 14.0875 21.7098 14.7577 22.1227 15.1704L22.1977 15.2452C22.6102 15.6582 23.2803 15.6582 23.6928 15.2452L23.8851 15.0526C24.1706 14.7672 24.6038 14.6879 24.9716 14.8543C25.0652 14.8968 25.1608 14.936 25.2575 14.9725C25.6349 15.1148 25.8853 15.4769 25.8853 15.8805V16.1528C25.8847 16.7365 26.3585 17.2101 26.9426 17.2101H27.0484C27.6318 17.2101 28.1056 16.7371 28.1056 16.1528V15.8809C28.1056 15.4771 28.3556 15.1148 28.7331 14.9721C28.8298 14.9358 28.9252 14.8965 29.0189 14.8543C29.3864 14.6879 29.8196 14.7672 30.1048 15.0519L30.298 15.245C30.7102 15.6582 31.3803 15.6582 31.7934 15.245L31.8682 15.17C32.2807 14.7574 32.2807 14.0875 31.8682 13.6747L31.6752 13.4819C31.3901 13.1966 31.3108 12.7635 31.4768 12.3957C31.5191 12.3025 31.5587 12.2071 31.5951 12.1105C31.7375 11.7328 32.0993 11.4823 32.5031 11.4823H32.7757C33.3593 11.483 33.8328 11.0091 33.8335 10.4253V10.3196C33.8328 9.73552 33.3595 9.26217 32.776 9.26217ZM26.9949 12.6991C25.7103 12.6991 24.6688 11.6575 24.6688 10.3727C24.6688 9.0879 25.7103 8.04639 26.9949 8.04639C28.2799 8.04639 29.3214 9.0879 29.3214 10.3727C29.3214 11.6575 28.2799 12.6991 26.9949 12.6991Z" fill="#EC8602"/>
</svg>
